<?xml version="1.0" standalone="no"?>
<!DOCTYPE svg PUBLIC "-//W3C//DTD SVG 1.1//EN" "http://www.w3.org/Graphics/SVG/1.1/DTD/svg11.dtd" >
<svg xmlns="http://www.w3.org/2000/svg">
<metadata>
Created by FontForge 20120731 at Thu Jul 14 13:44:17 2016
 By admin
</metadata>
<defs>
<font id="iconfont" horiz-adv-x="1024" >
  <font-face 
    font-family="iconfont"
    font-weight="500"
    font-stretch="normal"
    units-per-em="1024"
    panose-1="2 0 6 3 0 0 0 0 0 0"
    ascent="896"
    descent="-128"
    x-height="792"
    bbox="-1 -128 1345 896"
    underline-thickness="50"
    underline-position="-100"
    unicode-range="U+0078-3659"
  />
<missing-glyph horiz-adv-x="374" 
d="M34 0v682h272v-682h-272zM68 34h204v614h-204v-614z" />
    <glyph glyph-name=".notdef" horiz-adv-x="374" 
d="M34 0v682h272v-682h-272zM68 34h204v614h-204v-614z" />
    <glyph glyph-name=".null" horiz-adv-x="0" 
 />
    <glyph glyph-name="nonmarkingreturn" horiz-adv-x="341" 
 />
    <glyph glyph-name="x" unicode="x" horiz-adv-x="1001" 
d="M281 543q-27 -1 -53 -1h-83q-18 0 -36.5 -6t-32.5 -18.5t-23 -32t-9 -45.5v-76h912v41q0 16 -0.5 30t-0.5 18q0 13 -5 29t-17 29.5t-31.5 22.5t-49.5 9h-133v-97h-438v97zM955 310v-52q0 -23 0.5 -52t0.5 -58t-10.5 -47.5t-26 -30t-33 -16t-31.5 -4.5q-14 -1 -29.5 -0.5
t-29.5 0.5h-32l-45 128h-439l-44 -128h-29h-34q-20 0 -45 1q-25 0 -41 9.5t-25.5 23t-13.5 29.5t-4 30v167h911zM163 247q-12 0 -21 -8.5t-9 -21.5t9 -21.5t21 -8.5q13 0 22 8.5t9 21.5t-9 21.5t-22 8.5zM316 123q-8 -26 -14 -48q-5 -19 -10.5 -37t-7.5 -25t-3 -15t1 -14.5
t9.5 -10.5t21.5 -4h37h67h81h80h64h36q23 0 34 12t2 38q-5 13 -9.5 30.5t-9.5 34.5q-5 19 -11 39h-368zM336 498v228q0 11 2.5 23t10 21.5t20.5 15.5t34 6h188q31 0 51.5 -14.5t20.5 -52.5v-227h-327z" />
    <glyph glyph-name="uni1001" unicode="&#x1001;" 
d="M535 492l294 -294q9 -9 22.5 -9t22.5 9q9 10 9 23t-9 23l-317 316q-18 19 -44.5 19t-45.5 -19l-317 -316q-9 -10 -9 -23t9 -23q9 -9 22.5 -9t22.5 9l294 295q10 9 23 9t23 -10z" />
    <glyph glyph-name="uni1002" unicode="&#x1002;" 
d="M875 592q56 -97 56 -208q0 -114 -56 -210.5t-152.5 -152.5t-210.5 -56t-210.5 56t-152.5 152.5t-56 210.5t56 210.5t152.5 152.5t210.5 56q104 0 196 -49q11 -4 19.5 2.5t7 18t-13.5 19.5q-99 50 -209 50q-94 0 -179 -36t-147 -98t-98 -147t-36 -179t36 -179t98 -147
t147 -98t179 -36t179 36t147 98t98 147t36 179q0 120 -58 224q-11 18 -28 11t-11 -27zM766 730l-342 -342l-43 -122l127 43l337 339zM790 749l78 -82q3 2 8.5 6.5t17 17t18 25t5 29t-16 30.5t-31 16.5t-30 -4t-25.5 -15t-18 -15.5z" />
    <glyph glyph-name="uni1003" unicode="&#x1003;" 
d="M794 501q0 -77 -52.5 -142.5t-142 -103.5t-195.5 -38q-48 0 -98 9q-68 -48 -154 -71q-19 -5 -47 -8h-2q-6 0 -11.5 4t-6.5 12v3v4q0 1 1 3l2 3l1 3q2 3 2.5 3t2.5 3t2 2q3 3 13 14q10 10 15 16q2 4 12 16q8 11 14 22t11 24q-69 40 -108 98t-39 124q0 77 52 142.5
t142 103.5t195.5 38t196.5 -38q89 -38 141.5 -103.5t52.5 -142.5zM1006 359q0 -66 -39 -124t-108 -98q5 -13 11 -24t14 -22q12 -15 13 -16q4 -6 14 -16t13 -14l1 -1l1 -1q2 -2 2.5 -3t2.5 -3q1 -2 2 -3l1 -3l1 -3q1 -3 0.5 -3.5t-0.5 -3.5q-2 -8 -7.5 -12.5t-12.5 -3.5
q-27 4 -47 9q-86 22 -154 70q-50 -8 -98 -8q-150 0 -261 73q32 -2 49 -2q89 0 171 24.5t146 71.5q69 51 106.5 117.5t37.5 140.5q0 42 -13 84q71 -39 112.5 -98.5t41.5 -127.5z" />
    <glyph glyph-name="uni1004" unicode="&#x1004;" 
d="M274 879q-78 0 -133 -64t-55 -155q0 -77 41 -136t103 -77l-31 -506q-1 -26 16 -44.5t43 -18.5h31q26 0 43.5 18.5t15.5 44.5l-31 506q63 18 103.5 77t40.5 136q0 91 -54.5 155t-132.5 64zM905 879l-52 -312h-40l-26 312h-26l-26 -312h-39l-52 312h-26v-406q0 -13 9 -22.5
t22 -9.5h82l-31 -500q-2 -26 15.5 -44.5t43.5 -18.5h31q26 0 43 18.5t16 44.5l-31 500h82q13 0 22 9.5t9 22.5v406h-26z" />
    <glyph glyph-name="uni1005" unicode="&#x1005;" 
d="M948 640q12 0 20.5 8.5t8.5 20.5v154q0 12 -8.5 20.5t-20.5 8.5h-154q-12 0 -20.5 -8.5t-8.5 -20.5v-48h-94q-4 1 -9 0h-403v48q0 12 -8.5 20.5t-20.5 8.5h-154q-12 0 -20.5 -8.5t-8.5 -20.5v-154q0 -12 8.5 -20.5t20.5 -8.5h48v-506h-48q-12 0 -20.5 -8.5t-8.5 -20.5
v-154q0 -12 8.5 -20.5t20.5 -8.5h154q12 0 20.5 8.5t8.5 20.5v48h506v-48q0 -12 8.5 -20.5t20.5 -8.5h154q12 0 20.5 8.5t8.5 20.5v154q0 12 -8.5 20.5t-20.5 8.5h-48v407v3v96h48zM823 794h96v-96h-96v96zM182 436q3 2 5 4l277 277h132l-414 -414v133zM105 794h96v-47v-1
v-1v-47h-96v96zM230 640q12 0 20.5 8.5t8.5 20.5v48h123l-200 -200v123h48zM182 221l496 496h87v-35l-547 -548h-36v87zM105 -20v96h96v-47v-1v-1v-47h-96zM842 342l-278 -278q-3 -3 -5 -7h-133l416 416v-131zM919 -20h-96v96h96v-96zM794 134q-12 0 -20.5 -8.5t-8.5 -20.5
v-48h-126l203 203v-126h-48zM842 555l-498 -498h-85v36l547 547h36v-85z" />
    <glyph glyph-name="uni1006" unicode="&#x1006;" 
d="M234 712q-73 -17 -117 -57t-56.5 -92t-7 -115.5t28 -128.5t51.5 -129.5t61.5 -120.5t60 -100t44.5 -68t18 -25q11 3 30 8t74.5 23.5t107.5 39t119.5 53.5t121.5 67t102 79.5t71.5 92t19.5 103.5t-43 115q-29 42 -79 60.5t-101 14.5t-97.5 -15t-76 -22t-29.5 -12
q-5 11 -13.5 29.5t-38.5 63t-62.5 76.5t-84 52t-104.5 8zM555 528q35 13 72 22t89 15.5t103 -4.5t89 -40q8 26 3 57q-3 28 -23 49.5t-46 32.5t-51.5 17.5t-42.5 7.5l-18 2q1 6 1 17t-3.5 40.5t-11.5 53.5t-28 46.5t-49 29.5q-33 6 -58.5 4t-45 -17t-32.5 -34t-22 -47
t-14 -56t-7 -60q54 -56 95 -136z" />
    <glyph glyph-name="uni1007" unicode="&#x1007;" horiz-adv-x="1032" 
d="M566 216l-25 -23l72 -76l25 23zM432 224v147h47v33h-47v99h-34v-99h-41l14 66l-33 7l-21 -106h81v-162l-90 -39l13 -32l77 34v-122h34v137l66 30l-14 30zM741 305v34h-114v66h109v34h-109v37h-34v-37h-110v-34h110v-66h-115v-34h200v-60h-200v-34h200v-127
q0 -12 -8.5 -20t-20.5 -8h-46v-34h46q26 0 44 18.5t18 43.5v127h30v34h-30v60h30zM825 -95h-622q-16 0 -27.5 11.5t-11.5 28.5v381h-107q-26 0 -36 24.5t8 43.5l457 456q11 11 27.5 11t28.5 -11l456 -457q19 -18 9 -42.5t-37 -24.5h-105l-1 -70v-311q0 -17 -11.5 -28.5
t-27.5 -11.5zM205 -54h618v311l1 110h143l-453 453l-453 -453h144v-421z" />
    <glyph glyph-name="uni1008" unicode="&#x1008;" 
d="M233 592q4 -17 14 -53q7 -25 18 -59q10 -29 23 -59q12 -28 28 -55v-420l-267 -66v667zM313 629q0 5 -1 10v10q0 48 18 90q19 41 51 73t75 49q42 18 91.5 18t91.5 -18q43 -18 75 -49q32 -32 51 -73q18 -42 18 -90v-13q0 -6 -1 -13q-6 -56 -24.5 -108t-47.5 -100
q-29 -47 -67 -92q-36 -44 -80 -85q-7 -7 -16 -7q-8 0 -16 7q-43 41 -81 85q-38 46 -66 95q-28 48 -47 101t-24 110zM547.5 747q-21.5 0 -39.5 -7q-19 -8 -32 -21t-21 -32q-8 -17 -8 -37.5t8 -38.5t21.5 -31.5t31.5 -21.5q18 -7 39.5 -7t39.5 7q19 8 32 21q14 13 22 32
q8 17 8 38t-8 38q-8 19 -22 32q-13 13 -32 21q-18 7 -39.5 7zM382 280q30 -33 60 -62q27 -25 53 -49q27 -24 52 -44q13 10 29 25q14 11 32 29q22 22 42 41v-340l-268 66v334zM983 614v-668l-267 -66v408l12 14q7 8 13 13q21 23 39 56q19 34 33 69q14 37 25 74q11 35 20 69z
" />
    <glyph glyph-name="uni1009" unicode="&#x1009;" 
d="M511 304q-117 0 -199.5 82.5t-82.5 199t82.5 199t199.5 82.5t199.5 -82.5t82.5 -199t-82.5 -199t-199.5 -82.5zM510.5 826q-99.5 0 -169.5 -70.5t-70 -170t70 -170t169.5 -70.5t170 70.5t70.5 170t-70.5 170t-170 70.5zM360 -104h-256q-9 0 -15 6.5t-6 14.5q0 87 33 167
q33 77 92 136t136 92q80 33 167 33q8 0 14.5 -6t6.5 -14.5t-6.5 -14.5t-14.5 -6q-78 0 -148.5 -29.5t-124.5 -84.5q-105 -104 -113 -252h235q9 0 15 -6t6 -14.5t-6 -15t-15 -6.5zM918 -104q-9 0 -15 6.5t-6 14.5q0 93 -41 175q-40 79 -111 133q-7 5 -8.5 13.5t4 15.5t14 8
t15.5 -4q78 -60 123 -147q46 -91 46 -194q0 -8 -6 -14.5t-15 -6.5zM918 -114q-13 0 -22 9t-9 22q0 90 -40 170q-39 77 -109 130q-10 8 -11.5 20.5t5.5 22.5q10 13 25 13q11 0 19 -7q80 -61 126 -151q47 -93 47 -198q0 -13 -9 -22t-22 -9zM757 252q-5 0 -8 -4q-7 -9 2 -15
q73 -55 114 -137q42 -84 42 -179q0 -4 3.5 -7t7.5 -3t7.5 3t3.5 7q0 100 -45 189q-44 86 -120 144q-3 2 -7 2zM360 -114h-256q-13 0 -22.5 9t-9.5 22q0 89 35 171q33 79 93.5 139.5t139.5 93.5q13 6 27 10q-35 20 -63 48q-85 86 -85 207t85.5 206.5t206.5 85.5t206.5 -85.5
t85.5 -206.5t-85.5 -207t-206.5 -86v21q4 0 7 3t3 7.5t-3 7.5t-7 3q-43 0 -84 -8q41 -13 84 -13v-21q-76 0 -144.5 -28.5t-121.5 -81.5q-98 -97 -109 -235h224q13 0 22.5 -9t9.5 -22t-9.5 -22t-22.5 -9zM393 318q-23 -6 -45 -16q-75 -31 -132.5 -89t-89.5 -133
q-33 -78 -33 -163q0 -4 3 -7t8 -3h256q5 0 8 3t3 7.5t-3 7.5t-8 3h-246l1 11q4 73 33.5 139.5t81.5 119.5q84 83 198 107q-18 6 -35 13zM539 337q3 -6 3 -13q0 -4 -1 -9q94 11 162 78q80 80 80 192.5t-80 192t-192.5 79.5t-192 -79.5t-79.5 -192t80 -192.5q33 -33 75 -53
q18 5 36 8q-55 19 -96 60q-74 74 -74 177.5t73.5 177t177.5 73.5t177 -73.5t73 -177t-73 -177.5q-62 -61 -149 -71zM511 815q-95 0 -162.5 -67t-67.5 -162.5t67.5 -162.5t162.5 -67t162.5 67t67.5 162.5t-67.5 162.5t-162.5 67z" />
    <glyph glyph-name="uni1010" unicode="&#x1010;" 
d="M43 853v-938h426v938h-426zM427 -43h-342v854h342v-854zM512 853v-554h469v554h-469zM939 341h-384v470h384v-470zM512 256v-341h469v341h-469zM939 -43h-384v256h384v-256z" />
    <glyph glyph-name="uni1011" unicode="&#x1011;" 
d="M676 372q16 0 27 11.5t11 26.5t-11.5 26.5t-26.5 11.5h-126l128 127q12 12 12 27.5t-12 26.5q-12 12 -27.5 12t-26.5 -12l-118 -118l-118 118q-12 12 -27.5 12t-26.5 -12q-12 -12 -12 -27.5t12 -26.5l128 -127h-126q-16 0 -27 -11.5t-11 -26.5t11 -26.5t27 -11.5h132v-83
h-132q-16 0 -27 -11.5t-11 -27t11 -26.5t27 -11h132v-95q0 -15 11.5 -26.5t26.5 -11.5t26.5 11.5t11.5 26.5v95h132q15 0 26.5 11t11.5 26.5t-11 27t-27 11.5h-132v83h132zM881 711q-11 12 -26.5 13t-27 -10t-12.5 -26.5t9 -27.5q83 -92 102.5 -215t-29.5 -237
q-36 -79 -97 -137.5t-140 -89.5t-163 -29.5t-161 35.5q-80 35 -138.5 97.5t-88 137.5t-29 160.5t34.5 164.5q34 78 95 136.5t140 88.5q79 32 163.5 30.5t162.5 -36.5q14 -6 29.5 0t21.5 21q6 14 0 29t-21 21q-92 40 -191.5 42t-193.5 -34q-93 -37 -164 -106t-111 -162
q-41 -94 -42 -195t33.5 -189.5t104 -162t162.5 -113.5q97 -43 200 -43q98 0 183 35q94 36 165.5 105t112.5 161q59 135 36 280.5t-120 255.5z" />
    <glyph glyph-name="uni1012" unicode="&#x1012;" 
d="M851 879h-677q-60 0 -102.5 -42.5t-42.5 -102.5v-616q0 -60 42.5 -102.5t102.5 -42.5h63v-90h127v90h296v-90h127v90h64q59 0 102 42.5t43 102.5v616q0 60 -43 102.5t-102 42.5zM186 732q0 11 7.5 19t18.5 8h600q11 0 18.5 -8t7.5 -19v-7q0 -11 -7.5 -19t-18.5 -8h-600
q-11 0 -18.5 8t-7.5 19v7zM300.5 94q-37.5 0 -64 26.5t-26.5 64t26.5 64t64 26.5t64 -26.5t26.5 -64t-26.5 -64t-64 -26.5zM723.5 94q-37.5 0 -64 26.5t-26.5 64t26.5 64t64 26.5t64 -26.5t26.5 -64t-26.5 -64t-64 -26.5zM817 335h-609q-25 0 -41.5 17.5t-16.5 40.5v187
q0 24 17 41t41 17h608q24 0 41 -17.5t17 -40.5v-187h1q0 -24 -17 -41t-41 -17z" />
    <glyph glyph-name="uni1013" unicode="&#x1013;" 
d="M122 427q-9 0 -15 6t-6 14t6 14l254 254q6 6 14.5 6t14.5 -6t6 -14t-6 -14l-254 -254q-6 -6 -14 -6zM515 -108q-8 0 -14 6t-6 14v929q0 13 12.5 18.5t22.5 -4.5l393 -394q6 -6 6 -14t-6 -14t-14 -6t-14 6l-360 359v-880q0 -8 -5.5 -14t-14.5 -6z" />
    <glyph glyph-name="uni1014" unicode="&#x1014;" 
d="M997 -54l-168 180q106 127 106 292q0 93 -36.5 178t-98 146.5t-146.5 98t-178 36.5t-178 -36.5t-146.5 -98t-98 -146.5t-36.5 -178t36.5 -178t98 -146.5t146.5 -98t178 -36.5q100 0 190 41q13 6 18.5 20t-1 27t-20 18.5t-26.5 -0.5q-77 -35 -161 -35q-105 0 -194.5 52
t-141.5 141.5t-52 194.5t52 194.5t141.5 141.5t194.5 52t194.5 -52t141.5 -141.5t52 -194.5q0 -75 -28 -144.5t-80 -124.5q-10 -10 -10 -24.5t11 -25.5q1 0 2 -1t2 -1l1 -1q1 -2 1 -3l183 -196q10 -11 26 -11q14 0 24 10t10.5 24.5t-9.5 25.5z" />
    <glyph glyph-name="uni1015" unicode="&#x1015;" 
d="M36 749v-1v-1v-347q0 -58 41.5 -99.5t99.5 -41.5t99.5 41.5t41.5 99.5v347v1v1h-282zM374 749v-1l-1 -1v-347q0 -58 41.5 -99.5t99.5 -41.5t99.5 41.5t41.5 99.5v347v1v1h-281zM711 749v-1v-1v-347q0 -58 41.5 -99.5t99.5 -41.5t99.5 41.5t41.5 99.5v347v1q0 1 -1 1h-281
zM883 20h-716q-8 0 -14 6t-6 14v139q0 8 6 14t14.5 6t14.5 -6t6 -14v-118h675v118q0 8 6 14t14.5 6t14.5 -6t6 -14v-139q0 -8 -6 -14t-15 -6z" />
    <glyph glyph-name="uni1016" unicode="&#x1016;" horiz-adv-x="1026" 
d="M170 322v-369h233v299h242v-299h229v369l-349 299zM50 389q-10 0 -16 8q-5 6 -4.5 14.5t7.5 13.5l472 391q13 11 26 0l459 -391q6 -5 7 -13.5t-4.5 -15t-14 -7t-15.5 4.5l-445 380l-459 -380q-6 -5 -13 -5v0zM286 585q-8 0 -14 6t-6 14v185q0 9 6 15t14 6t14 -6t6 -15
v-185q0 -8 -6 -14t-14 -6z" />
    <glyph glyph-name="uni1017" unicode="&#x1017;" 
d="M847 196q-63 0 -108 -45l-421 214q7 22 7 46q0 16 -3 31l394 196q21 -34 55.5 -54t75.5 -20q64 0 109 45t45 108.5t-45 108.5t-109 45t-108.5 -45t-44.5 -108q0 -11 1 -22l-398 -197q-21 30 -54 47.5t-72 17.5q-63 0 -108 -45t-45 -108.5t45 -108.5t108 -45q71 0 117 54
l417 -211q-11 -28 -11 -58q0 -63 44.5 -108t108.5 -45t109 45t45 108.5t-45 108.5t-109 45z" />
    <glyph glyph-name="uni1018" unicode="&#x1018;" horiz-adv-x="1029" 
d="M980 441q-29 43 -70 51q-10 30 -39 39q-14 135 -114 227q-103 96 -244.5 96t-245.5 -96q-100 -92 -114 -227q-29 -9 -39 -39q-41 -8 -70 -51q-33 -49 -33 -117.5t33 -117.5q29 -43 70 -51q6 -19 22 -30.5t36 -11.5q24 0 42 17.5t18 42.5v301q0 18 -10.5 33.5t-27.5 22.5
q13 118 100 199q92 85 218 85t218 -85q87 -82 100 -199q-16 -7 -27 -22.5t-11 -33.5v-301q0 -19 11 -34.5t29 -21.5q-5 -60 -41 -92t-99 -32h-63q-6 18 -21.5 29t-35.5 11h-100q-25 0 -42.5 -17.5t-17.5 -42.5t17.5 -42.5t42.5 -17.5h100q20 0 35.5 11t21.5 29h63
q79 0 127 43.5t53 119.5q29 10 38 39q41 8 70 51q33 49 33 117.5t-33 117.5z" />
    <glyph glyph-name="uni1019" unicode="&#x1019;" 
d="M905 -32h67v471h-67v-471zM98 371l336 -470l336 269l-605 269zM972 506l-471 336l-471 -201l471 -270z" />
    <glyph glyph-name="uni1020" unicode="&#x1020;" 
d="M270 -114l-28 29l467 468l-467 468l28 28l482 -482q6 -6 6 -14.5t-6 -14.5z" />
    <glyph glyph-name="uni1021" unicode="&#x1021;" horiz-adv-x="1043" 
d="M946 -65h-866q-29 0 -50 21t-21 50v764q0 30 21 51t50 21h866q30 0 51 -21t21 -51v-662q0 -8 -6 -14t-14.5 -6t-14.5 6t-6 14v662q0 13 -9 22t-22 9h-866q-12 0 -21 -9t-9 -22v-764q0 -12 9 -21t21 -9h866q9 0 15 -6t6 -14.5t-6 -14.5t-15 -6zM258 495q-40 0 -68 28.5
t-28 68.5t28 68.5t68.5 28.5t68.5 -28.5t28 -68.5t-28 -68.5t-69 -28.5zM258 648q-23 0 -39 -16.5t-16 -39.5t16 -39.5t39.5 -16.5t39.5 16.5t16 39.5t-16 39.5t-40 16.5zM106 164q-11 0 -17 8q-5 7 -3.5 15.5t7.5 13.5l204 153q14 10 27 -2l87 -88l241 241q6 6 14.5 6
t14.5 -6l254 -255q6 -6 6 -14.5t-6 -14.5t-14.5 -6t-14.5 6l-240 240l-240 -240q-6 -6 -15 -6q-8 0 -14 6l-89 89l-190 -142q-6 -4 -12 -4zM921 139h-357q-8 0 -14 6t-6 14.5t6 14.5t14 6h357q8 0 14 -6t6 -14.5t-6 -14.5t-14 -6zM921 37h-561q-8 0 -14 6t-6 14.5t6 14.5
t14 6h561q8 0 14 -6t6 -14.5t-6 -14.5t-14 -6z" />
    <glyph glyph-name="uni1022" unicode="&#x1022;" 
d="M368 421h-267q-39 0 -67 28t-28 68v267q0 39 28 67t67 28h267q40 0 68 -28t28 -67v-267q0 -40 -28 -68t-68 -28zM101 839q-23 0 -39 -16t-16 -39v-267q0 -23 16 -39t39 -16h267q23 0 39 16t16 39v267q0 23 -16 39t-39 16h-267zM368 -123h-267q-39 0 -67 28t-28 67v268
q0 39 28 67t67 28h267q40 0 68 -28t28 -67v-268q0 -39 -28 -67t-68 -28zM101 294q-23 0 -39 -16t-16 -38v-268q0 -22 16 -38.5t39 -16.5h267q23 0 39 16.5t16 38.5v268q0 22 -16 38t-39 16h-267zM913 -123h-268q-39 0 -67 28t-28 67v268q0 39 28 67t67 28h268q39 0 67 -28
t28 -67v-225q0 -9 -6 -14.5t-14.5 -5.5t-14 5.5t-5.5 14.5v225q0 22 -16.5 38t-38.5 16h-268q-22 0 -38 -16t-16 -38v-268q0 -22 16 -38.5t38 -16.5h268q8 0 14 -6t6 -14t-6 -14t-14 -6zM913 421h-268q-39 0 -67 28t-28 68v267q0 39 28 67t67 28h268q39 0 67 -28t28 -67
v-267q0 -40 -28 -68t-67 -28zM645 839q-22 0 -38 -16t-16 -39v-267q0 -23 16 -39t38 -16h268q22 0 38.5 16t16.5 39v267q0 23 -16.5 39t-38.5 16h-268z" />
    <glyph glyph-name="uni1023" unicode="&#x1023;" 
d="M369 666q0 30 -19.5 51.5t-48.5 21.5h-2v105q0 15 -10.5 25t-25.5 10t-25.5 -10t-10.5 -25v-105h3q-30 0 -51.5 -21.5t-21.5 -51.5q-28 0 -50 -21t-22 -50v-709h356v709q0 30 -20.5 50.5t-51.5 20.5zM227 -43h-70v71h70v-71zM227 99h-70v71h70v-71zM227 240h-70v72h70
v-72zM227 383h-70v72h70v-72zM227 526h-70v71h70v-71zM369 -43h-70v71h70v-71zM369 99h-70v71h70v-71zM369 240h-70v72h70v-72zM369 383h-70v72h70v-72zM369 526h-70v71h70v-71zM870 597h-71q-30 0 -52 -22t-22 -51v-142q0 30 -19.5 51.5t-49.5 21.5h-71q-29 0 -50.5 -22
t-21.5 -51v-496h426v638q0 30 -20 51.5t-49 21.5zM656 -43h-73v71h73v-71zM656 99h-73v71h73v-71zM656 240h-73v72h73v-72zM867 -43h-70v71h70v-71zM867 99h-70v71h70v-71zM867 240h-70v72h70v-72zM867 383h-70v72h70v-72z" />
    <glyph glyph-name="uni1024" unicode="&#x1024;" 
d="M539 -112q-22 0 -46 5t-64.5 24t-80.5 50t-91 90.5t-100 138.5q-45 74 -73 141t-38 115t-9.5 90.5t7.5 68t18.5 47t17.5 28.5t10 11l60 48q15 9 29 5.5t23 -17.5l112 -185q15 -14 13 -30q-1 -13 -11 -21v-1l-4 -2l-69 -36q-10 -8 -11 -22t4.5 -30.5t17.5 -40.5l100 -158
q30 -39 49 -58t34 -19q5 0 10 3l59 50q16 9 31 5.5t23 -17.5l120 -188v-2q0 -34 -16 -46v-1l-5 -3l-68 -33q-20 -10 -52 -10zM948 297h-20v21q0 105 -41.5 201.5t-111 166.5t-166 111.5t-202.5 41.5q-9 0 -14.5 6t-5.5 14.5t5.5 14t14.5 5.5q114 0 218 -44.5t179 -119.5
t120 -179t45 -218q0 -9 -6 -15t-15 -6zM760 297q-8 0 -14 6t-6 15q0 90 -44.5 166.5t-121.5 121t-167 44.5q-8 0 -14 6t-6 14.5t6 14.5t14 6q101 0 187 -50t136 -136t50 -187q0 -9 -6 -15t-14 -6zM572 297q-9 0 -15 6t-6 15q0 59 -42 101.5t-102 42.5q-8 0 -14 6t-6 14.5
t6 14.5t14 6q76 0 130.5 -54.5t54.5 -130.5q0 -9 -6 -15t-14 -6z" />
    <glyph glyph-name="uni1025" unicode="&#x1025;" horiz-adv-x="1037" 
d="M67 419q12 -7 25 -11l2 -1q16 -4 29 -4q44 0 77 33t41 83v46q-1 7 -5 19h-227q-6 -23 -6 -42q0 -39 17.5 -72t46.5 -51zM771 471q-17 -43 -52 -69.5t-77.5 -26.5t-77 26.5t-52.5 69.5q-18 -43 -52.5 -69.5t-77 -26.5t-77.5 26.5t-52 69.5q-18 -43 -53 -69.5t-77 -26.5
q-29 0 -56 13v-366q0 -24 14.5 -40.5t34.5 -16.5h768q20 0 34.5 16.5t14.5 40.5v357q-17 -4 -32 -4q-42 0 -77 26.5t-53 69.5zM487 84h-284v248h284v-248zM786 21h-185v311h185v-311zM761 159h-63v-24h63v24zM973 612l-167 191h-94l63 -191h198zM491 612v191h-168l-63 -191
h231zM282 758l15 45h-93l-168 -191h198zM524 565v-46q7 -50 40.5 -83t77.5 -33t77 33t40 83v46q-1 8 -4 19h-227q-3 -12 -4 -19zM1015 584h-227q-4 -11 -5 -19v-46q8 -50 41 -83t77 -33q8 0 19 2q43 8 72 46.5t29 90.5q0 20 -6 42zM264 565v-46q8 -50 41 -83t77 -33t77.5 33
t40.5 83v46q-1 7 -4 19h-227q-4 -12 -5 -19zM687 803h-169v-191h231z" />
    <glyph glyph-name="uni1026" unicode="&#x1026;" horiz-adv-x="1025" 
d="M978 -7q-4 0 -7 1l-807 289l-101 -90q-10 -8 -22 -3t-12 19v391q0 12 11.5 18t21.5 -2l113 -91l644 234q8 3 16 -0.5t10.5 -11.5t-1 -15.5t-11.5 -10.5l-655 -238q-11 -4 -19 3l-89 71v-303l76 68q9 8 20 4l791 -284v753q0 8 6 14t14.5 6t14.5 -6t6 -14v-782
q0 -10 -9 -17q-5 -3 -11 -3zM515 -41q-34 0 -67 12q-75 28 -109 99q-37 78 -4 173q3 8 10.5 12t15.5 1t11.5 -10.5t1.5 -15.5q-28 -80 1 -139.5t87 -80.5q27 -10 54 -10q48 0 90 30.5t66 92.5q3 8 10.5 11.5t15.5 0.5t11.5 -11t0.5 -15q-37 -96 -115 -132q-38 -18 -80 -18v0
z" />
    <glyph glyph-name="uni1027" unicode="&#x1027;" 
d="M267 824h73v-196h-73v196zM684 824h73v-196h-73v196zM953 750h-147v-49h1v-123l-172 1v122v49h-246v-171h-172v122h1v49h-147q-20 0 -34.5 -14t-14.5 -35v-710q0 -21 14.5 -35t34.5 -14h882q20 0 34.5 14t14.5 35v710q0 21 -14.5 35t-34.5 14zM267 155q-25 0 -43 17.5
t-18 43t18 43t43 17.5t43 -17.5t18 -43t-18 -43t-43 -17.5zM267 398q-25 0 -43 18t-18 43t18 43t43 18t43 -18t18 -43t-18 -43t-43 -18zM512 155q-25 0 -43 17.5t-18 43t18 43t43 17.5t43 -17.5t18 -43t-18 -43t-43 -17.5zM512 398q-25 0 -43 18t-18 43t18 43t43 18t43 -18
t18 -43t-18 -43t-43 -18zM757 155q-25 0 -43 17.5t-18 43t18 43t43 17.5t43 -17.5t18 -43t-18 -43t-43 -17.5zM757 398q-25 0 -43 18t-18 43t18 43t43 18t43 -18t18 -43t-18 -43t-43 -18z" />
    <glyph glyph-name="uni1028" unicode="&#x1028;" 
d="M932 142h-149v149q0 15 -10.5 25.5t-25.5 10.5t-25.5 -10.5t-10.5 -25.5v-149h-149q-15 0 -25.5 -10.5t-10.5 -25t10.5 -25t25.5 -10.5h149v-150q0 -15 10.5 -25.5t25.5 -10.5t25.5 10.5t10.5 25.5v150h149q15 0 25.5 10t10.5 25t-10.5 25.5t-25.5 10.5zM562 213h77v78
q0 45 31.5 76.5t76.5 31.5q18 0 36 -7l122 122q8 7 8 29q-5 9 -8 14t-8.5 9.5t-12.5 4.5l-258 43l-115 244q0 10 -8.5 15.5t-19.5 5.5q-18 0 -29 -21l-115 -244l-258 -28q-19 -10 -28 -29q0 -29 7 -43l186 -194l-43 -265q0 -28 14 -35q12 -12 36 0l206 115q9 34 37.5 56
t65.5 22z" />
    <glyph glyph-name="uni1029" unicode="&#x1029;" horiz-adv-x="1026" 
d="M763 333q-5 2 -20.5 1t-23.5 -4q-27 -13 -102 -41v152v59h83q8 0 11.5 7.5t-2.5 13.5l-300 301q-4 3 -9 3t-9 -3l-300 -300q-6 -6 -3 -14t12 -8h83v-213q-38 -7 -72 -22q-25 8 -32.5 10t-17 1t-11.5 -4t-14 -13t-26 -19q329 -219 439 -293q4 -2 18 -4t20 0q49 10 99.5 29
t84.5 32.5t72 23.5t81 7t93 -22q10 26 42 106t51 124q-81 29 -247 90zM363 101q-12 -1 -55 28t-47 47q-1 11 15.5 20.5t30 13.5t19.5 5q23 4 56 12.5t56 12.5v25q-69 16 -122 22v105h168v-152q-91 -33 -150 -57q-14 -4 -17.5 -10.5t1 -12t9.5 -9.5t8 -6q18 -8 36.5 -13
t42.5 -7t41.5 -2.5t49.5 1.5t48 3.5t56 6t56 5.5q-5 -1 -32 -8.5t-35 -9.5t-33 -8.5t-36.5 -8.5t-33.5 -6t-36 -4.5t-32.5 -1t-34 2t-29.5 6.5z" />
    <glyph glyph-name="uni1031" unicode="&#x1031;" horiz-adv-x="1035" 
d="M316 -71q-34 0 -59 24l-230 231q-24 24 -24 58t24 58l284 284q21 21 56 35.5t64 14.5h76q9 0 15 -6t6 -14.5t-6 -14.5t-15 -6h-76q-21 0 -48.5 -11.5t-42.5 -26.5l-284 -284q-12 -12 -12 -29t12 -29l230 -231q12 -12 29.5 -12t29.5 12l284 284q15 16 26.5 43t11.5 49v194
q0 17 -12 29t-30 12q-8 0 -14 6t-6 14.5t6 14.5t14 6q35 0 59 -24t24 -58v-194q0 -30 -14.5 -65t-35.5 -56l-284 -284q-24 -24 -58 -24zM559 426q-27 0 -46 19t-19 45.5t19 45.5t45.5 19t45.5 -19t19 -45.5t-19 -45.5t-45 -19zM559 514q-10 0 -17 -7t-7 -16.5t7 -16.5
t16.5 -7t16.5 7t7 16.5t-7 16.5t-16 7zM776 362q-9 0 -15 6t-6 14.5t6 14.5t15 6q82 0 139.5 57.5t57.5 139.5t-57.5 139.5t-139.5 57.5t-140 -57.5t-58 -139.5q0 -8 -5.5 -14t-14 -6t-14.5 6t-6 14q0 99 69.5 168.5t168.5 69.5t168.5 -69.5t69.5 -168.5t-69.5 -168.5
t-168.5 -69.5z" />
    <glyph glyph-name="uni1038" unicode="&#x1038;" 
d="M881 22h-41v202q0 5 -3.5 9t-9.5 4h-188q-6 0 -10 -4t-4 -9v-202h-27v538q0 5 -3.5 9t-9.5 4h-202v81h377v-161h-14q-5 0 -9 -4t-4 -10v-54q0 -5 4 -9t9 -4h14v-27q11 0 19 -8t8 -19t-8 -19t-19 -8t-19 8t-8 19h-27q0 -22 16 -38t38 -16t38 16t16 38q0 31 -27 47v7h13
q6 0 10 4t4 9v54q0 6 -4 10t-10 4h-13v161h94l27 54l-27 27h-498v53q0 6 -4 10t-9 4h-108q-5 0 -9 -4t-4 -10v-53h-27v13q0 6 -4 10t-10 4h-80q-6 0 -10 -4t-4 -10v-134q0 -6 4 -10t10 -4h80q6 0 10 4t4 10v40h27v-81h-41q-5 0 -9 -4t-4 -9v-538h-67q-6 0 -10 -4t-4 -10v-26
q0 -6 4 -10t10 -4h753q5 0 9 4t4 10v26q0 6 -4 10t-9 4zM545 318q0 -6 -4 -10t-10 -4h-54q-5 0 -9 4t-4 10v54q0 5 4 9t9 4h54q6 0 10 -4t4 -9v-54zM545 452q0 -5 -4 -9t-10 -4h-54q-5 0 -9 4t-4 9v54q0 6 4 9.5t9 3.5h54q6 0 10 -3.5t4 -9.5v-54z" />
    <glyph glyph-name="uni1040" unicode="&#x1040;" 
d="M649 183q-10 -10 -20.5 -12t-27.5 7.5t-30 19t-42 33.5q-12 10 -19 15q-1 1 -78 77t-78 77q-17 20 -25.5 32.5t-17 29t-7 30t12.5 24.5l14 14l-220 221q-7 -7 -13 -14q-15 -18 -25 -45.5t-8.5 -78t21.5 -108t75.5 -140t143.5 -171.5q91 -92 177.5 -151t148 -81t115 -23.5
t84 9.5t49.5 29l-217 220zM388 588q24 24 24 58t-24 58l-104 104q-24 25 -57.5 25t-57.5 -24l-32 -32l219 -221zM936 152l-103 104q-25 23 -60.5 20t-60.5 -28l-25 -26l218 -219q8 8 31 32q24 24 24 58t-24 59z" />
    <glyph glyph-name="uni1041" unicode="&#x1041;" 
d="M955 606q0 4 -1 8q-2 20 -10 39t-22.5 37.5t-26 30.5t-32 32t-29.5 29q-19 20 -45 30.5t-45 12t-54 1.5h-385q-13 0 -22.5 -9.5t-9.5 -22.5v-163h-174q-13 0 -22.5 -9.5t-9.5 -22.5v-494q0 -67 38 -107t106 -40h204h43h172q15 0 45 -1.5t52.5 -2.5t53 0.5t53.5 5.5
t47 13.5t39 23.5t25 37.5t10 53.5v513v5zM131 84q-1 8 -1 17.5t0.5 21t0.5 17.5v427h142v-483q0 -35 17 -63h-59q-22 0 -35.5 1.5t-29.5 7.5t-25 19t-10 35zM889 65q-5 -18 -19.5 -28.5t-37.5 -14t-42 -4t-45.5 1t-33.5 1.5h-246h-6h-1h-41q-37 2 -58.5 16t-21.5 52v397v276
h296q8 0 40 2t54 0.5t39 -8.5q11 -5 22.5 -16t25.5 -27.5t19 -20.5q1 -2 17 -18t21 -22t12 -19.5t8 -26.5v-393q0 -13 2 -45.5t1 -57t-5 -45.5zM733 518q20 0 28 15.5t0 31t-28 15.5h-278q-20 0 -28 -15.5t0 -31t28 -15.5h278zM583 411h-117q-19 0 -27.5 -16.5t0 -32.5
t27.5 -16h117q20 0 28.5 16t0 32.5t-28.5 16.5zM583 240h-117q-19 0 -27.5 -16t0 -31.5t27.5 -15.5h117v63zM711 389v-181q0 -15 16 -21t32 0t16 21v181q0 20 -16 28.5t-32 0t-16 -28.5z" />
    <glyph glyph-name="uni1042" unicode="&#x1042;" 
d="M954 650q-9 0 -15 -6t-6 -15v-125q0 -9 6 -15t15 -6h47q8 0 14.5 6t6.5 15v127q0 8 -5.5 13.5t-13.5 5.5v2l-1 32q1 3 0 11.5t-7 26t-18 30.5q-15 17 -32 25t-53 10q0 11 -8 19t-19 8h-700q-12 0 -20 -8t-8 -19h1q-34 -2 -49 -10t-30 -25q-26 -29 -29 -66v-36h-2
q-12 0 -20 -8t-8 -20v-111q0 -12 8 -20t20 -8h29q12 0 20 8t8 20v118q0 9 -6 15t-15 6l2 38q-1 1 0.5 6.5t5.5 16t11 18.5q16 18 56 23l-2 -325h-11q-14 0 -23.5 -9.5t-9.5 -23.5v-350q0 -13 9.5 -23t23.5 -10h34v2v-69q0 -14 9.5 -23.5t23.5 -9.5h71q14 0 23.5 9.5
t9.5 23.5v67h428v2v-69q0 -14 9.5 -23.5t23.5 -9.5h67q14 0 23.5 9.5t9.5 23.5v67h45q14 0 23.5 10t9.5 23v350q0 14 -9.5 23.5t-23.5 9.5h-11v325q40 -4 57 -22q17 -19 17 -44v-36h-12zM266 427q-15 0 -25.5 10.5t-10.5 24.5v153q0 15 10.5 25t24.5 10l502 2q15 0 25 -10.5
t10 -24.5v-155q0 -14 -10 -24.5t-25 -10.5h-501zM739 219h-442v48h442v-48zM739 297h-442v48h442v-48zM160 140q0 11 7.5 19t18.5 8h40q11 0 19 -8t8 -19v-2q0 -11 -8 -19t-19 -8h-40q-11 0 -18.5 8t-7.5 19v2zM253 235q0 -11 -8 -19t-19 -8h-39q-12 0 -19.5 8t-7.5 19v84
q0 11 7.5 18.5t19.5 7.5h39q11 0 19 -7.5t8 -18.5v-84zM279 746q0 8 5.5 13.5t13.5 5.5h433q8 0 14 -5.5t6 -13.5v-28q0 -8 -6 -14t-14 -6h-433q-8 0 -13.5 6t-5.5 14v28zM297 141v48h442v-48h-442zM873 138q0 -11 -8 -19t-19 -8h-39q-11 0 -19 8t-8 19v2q0 11 8 19t19 8h39
q11 0 19 -8t8 -19v-2zM873 235q0 -11 -8 -19t-19 -8h-39q-11 0 -19 8t-8 19v84q0 11 8 18.5t19 7.5h39q11 0 19 -7.5t8 -18.5v-84z" />
    <glyph glyph-name="uni1043" unicode="&#x1043;" 
d="M0 542h1024v-124h-1024v124zM126 418h128v-488h-128v488zM446 418h128v-476h-128v476zM768 418h124v-476h-124v476zM0 32h1024v-128h-1024v128zM1024 676l-514 188l-510 -188v-68h1024v68z" />
    <glyph glyph-name="uni1044" unicode="&#x1044;" 
d="M510.5 881q-101.5 0 -187 -50t-135.5 -135.5t-50 -187.5q0 -58 20.5 -123.5t53.5 -124.5t72.5 -116t79.5 -103t73 -80.5t53.5 -54.5t20.5 -19q8 7 21 19t52 52t74 81t78 100.5t74 116.5t52.5 124.5t21.5 127.5q0 102 -50 187.5t-136 135.5t-187.5 50zM510.5 384
q-51.5 0 -88 36.5t-36.5 88t36.5 88t88 36.5t88 -36.5t36.5 -88t-36.5 -88t-88 -36.5z" />
    <glyph glyph-name="uni1045" unicode="&#x1045;" 
d="M631 12q-14 0 -23.5 10t-9.5 23v420q0 11 7.5 20t18.5 12l-201 187l-153 -143v137q0 21 -15 36t-36 15t-36 -15t-15 -36v-232l-73 -68h28v-379h206v181q0 12 8.5 20t20.5 8h130q12 0 20.5 -8t8.5 -20v-181h206v13h-92zM880 468h-233q-12 0 -20.5 -8.5t-8.5 -20.5v-369
q0 -12 8.5 -20.5t20.5 -8.5h233q12 0 20.5 8.5t8.5 20.5v369q0 12 -8.5 20.5t-20.5 8.5zM709 74q0 -6 -4 -10t-9 -4h-47q-6 0 -9.5 4t-3.5 10v46q0 6 3.5 10t9.5 4h47q5 0 9 -4t4 -10v-46zM709 161q0 -5 -4 -9t-9 -4h-47q-6 0 -9.5 4t-3.5 9v47q0 5 3.5 9t9.5 4h47q5 0 9 -4
t4 -9v-47zM709 252q0 -5 -4 -9t-9 -4h-47q-6 0 -9.5 4t-3.5 9v47q0 5 3.5 9t9.5 4h47q5 0 9 -4t4 -9v-47zM800 74q0 -6 -4 -10t-9 -4h-47q-6 0 -9.5 4t-3.5 10v46q0 6 3.5 10t9.5 4h47q5 0 9 -4t4 -10v-46zM800 161q0 -5 -4 -9t-9 -4h-47q-6 0 -9.5 4t-3.5 9v47q0 5 3.5 9
t9.5 4h47q5 0 9 -4t4 -9v-47zM800 252q0 -5 -4 -9t-9 -4h-47q-6 0 -9.5 4t-3.5 9v47q0 5 3.5 9t9.5 4h47q5 0 9 -4t4 -9v-47zM891 74q0 -6 -4 -10t-10 -4h-46q-6 0 -10 4t-4 10v46q0 6 4 10t10 4h46q6 0 10 -4t4 -10v-46zM891 161q0 -5 -4 -9t-10 -4h-46q-6 0 -10 4t-4 9v47
q0 5 4 9t10 4h46q6 0 10 -4t4 -9v-47zM891 252q0 -5 -4 -9t-10 -4h-46q-6 0 -10 4t-4 9v47q0 5 4 9t10 4h46q6 0 10 -4t4 -9v-47zM891 382q0 -12 -8.5 -20.5t-20.5 -8.5h-197q-12 0 -20.5 8.5t-8.5 20.5v18q0 12 8.5 20.5t20.5 8.5h197q12 0 20.5 -8.5t8.5 -20.5v-18z" />
    <glyph glyph-name="uni1046" unicode="&#x1046;" 
d="M191 167h-124q-20 0 -33.5 -13.5t-13.5 -32.5t13.5 -33t33.5 -14h124q19 0 32.5 14t13.5 33t-13.5 32.5t-32.5 13.5zM237 384q0 19 -13.5 33t-32.5 14h-124q-20 0 -33.5 -14t-13.5 -33t13.5 -32.5t33.5 -13.5h124q19 0 32.5 13.5t13.5 32.5zM237 647q0 19 -13.5 33
t-32.5 14h-125q-19 0 -32.5 -14t-13.5 -33t13.5 -32.5t32.5 -13.5h125q19 0 32.5 13.5t13.5 32.5zM992 787q0 19 -19 32.5t-45 13.5h-768q-20 0 -33.5 -13.5t-13.5 -32.5v-47h78q38 0 65.5 -27t27.5 -65.5t-27.5 -66t-65.5 -27.5h-78v-77h78q38 0 65.5 -27t27.5 -65.5
t-27.5 -66t-65.5 -27.5h-78v-77h78q38 0 65.5 -27.5t27.5 -66t-27.5 -65.5t-65.5 -27h-78v-46q0 -20 13.5 -33.5t33.5 -13.5h768q26 0 45 13.5t19 33.5v805zM416 107q58 7 97 55q11 13 16 13q20 -6 24 -39q-27 -68 -83 -90q-29 3 -47 42zM684 140q2 32 23 39q4 0 13 -13
q41 -46 102 -52l-7 -26q-23 -42 -48 -42q-58 22 -83 94zM849 169h-5q-20 0 -45 6q-16 3 -20 7q-28 3 -72 6q-31 2 -95 7h-9q-42 0 -68 -3h-51q-45 -4 -75 -7q-16 -6 -31 -6q-12 -4 -12 16v16q3 16 3 26q0 13 6 26q5 3 16 3h9q14 0 18 -6q2 -4 7 -0.5t9 3.5q2 52 2 146v52
q0 48 -2 68q-2 0 -2 3q-7 13 -5 19q5 23 25 33q2 0 7 -3q2 -4 7 0h76v38q0 10 -2 30q-2 16 0 29q-2 13 9 16q4 0 11 -3.5t14 0.5h6q23 3 21 -26q-3 -20 -5 -23v-61h59v38q0 10 -2 30q-3 16 0 29q-3 13 9 16q4 0 11 -3h11h9q20 3 20 -26q-2 -16 -4 -20v-64h77q7 3 15 6
q21 -13 25 -32q0 -10 -7 -30q-2 -45 -2 -181q2 -36 2 -46q-2 -19 3 -38h20q29 0 43 9v-26q-14 -61 -36 -74zM487 426h55v91h-55v-91zM487 342v-78h55v97h-55v-19zM596 517h58v-91h-58v91zM596 338v-42q2 -23 2 -32h56v97h-58v-23zM708 517h57v-91h-57v91zM708 329v-65
q9 0 30 -3q18 -4 27 0v100h-57v-32z" />
    <glyph glyph-name="uni1047" unicode="&#x1047;" 
d="M6 -128h506v1012h-506v-1012zM318 759h127v-127h-127v127zM318 505h127v-127h-127v127zM318 253h127v-127h-127v127zM69 759h127v-127h-127v127zM69 505h127v-127h-127v127zM69 253h127v-127h-127v127zM575 564h443v-58h-443v58zM575 -128h127v221h190v-221h126v564h-443
v-564z" />
    <glyph glyph-name="uni1048" unicode="&#x1048;" 
d="M946 754q0 30 -16 48.5t-43 21.5h-2l-244 5q-51 0 -86 -30l-2 -1l-470 -471q-19 -18 -19 -44t19 -45l277 -277q19 -19 45 -19t44 19l231 231q3 3 7 8l225 225q39 45 38 101zM880 456l-226 -226q-2 -2 -3 -4t-2 -3l-231 -231q-6 -5 -13.5 -5t-13.5 5l-277 278
q-5 5 -5 12.5t5 13.5l470 470q23 18 57 18l242 -4q19 -2 19 -27l4 -227q1 -39 -26 -70zM747.5 710q-34.5 0 -59 -24.5t-24.5 -59t24.5 -59t59 -24.5t59 24.5t24.5 59t-24.5 59t-59 24.5zM747 588q-16 0 -27.5 11.5t-11.5 27.5t11.5 27.5t27.5 11.5t27.5 -11.5t11.5 -27.5
t-11.5 -27.5t-27.5 -11.5zM558 370l-185 -185q-6 -6 -6 -15t6.5 -15.5t15.5 -6.5t16 6l185 185q6 7 6 16t-6.5 15.5t-15.5 6.5t-16 -7zM565.5 530.5q-6.5 6.5 -15.5 6.5t-16 -6l-253 -253q-6 -7 -6 -16t6.5 -15.5t15.5 -6.5t15 6l253 253q7 7 7 16t-6.5 15.5z" />
    <glyph glyph-name="uni1049" unicode="&#x1049;" 
d="M1011 421l-476 408q-10 8 -23 8t-23 -8l-476 -408q-18 -16 -9.5 -39.5t32.5 -23.5h142v-392q0 -15 10.5 -25.5t25.5 -10.5h189q15 0 25 10.5t10 25.5v176h166v-176q0 -15 10.5 -25.5t24.5 -10.5h190q14 0 24.5 10.5t10.5 25.5v393h118q19 -2 33 14q10 11 9 24.5t-13 23.5
zM793 1h-118v177q0 15 -10.5 25t-25.5 10h-236q-15 0 -25.5 -10t-10.5 -25v-177h-118v393q0 14 -10.5 24.5t-24.5 10.5h-82l380 326l377 -323h-73q-8 0 -16 -5.5t-8 -17.5v-50h1v-358z" />
    <glyph glyph-name="uni1050" unicode="&#x1050;" horiz-adv-x="1000" 
d="M530 481h97v-48h-97v48zM530 385h97v-64h-97v64zM530 274h97v-64h-97v64zM926 540l-353 290q-24 20 -58.5 20t-59.5 -20l-353 -290q-24 -20 -24 -48.5t24 -48.5h85v-358q0 -40 28.5 -69t69.5 -29h458q41 0 70 29t29 69v358h84q25 20 25 48.5t-25 48.5zM705 162h-264v48
h36v91q-1 1 -2 2.5t-2 1.5l-30 -35q-15 22 -31 43v-167h-51v169q-16 -47 -38 -89q-8 30 -20 63q27 40 48 96h-45v48h55v51q-22 -2 -48 -3q-2 26 -7 48q67 3 145 15l12 -47q-25 -6 -51 -11v-53h53v-48h-53v-41l14 13q20 -21 47 -52l4 4v220h203v-319h25v-48z" />
    <glyph glyph-name="perthousand" unicode="&#x2030;" 
d="M964 -115h-902q-8 0 -14 6t-6 14.5t6 14.5t14 6h902q9 0 14.5 -6t5.5 -14.5t-5.5 -14.5t-14.5 -6zM621 -115h-1l-492 2q-8 0 -14 6t-6 15v782q0 15 14 19l492 162q10 3 18.5 -3t8.5 -17v-946q0 -8 -6 -14t-14 -6zM149 -72l451 -2v897l-451 -148v-747zM243 578h53v-53h-53
v53zM343 578h53v-53h-53v53zM443 578h53v-53h-53v53zM243 477h53v-53h-53v53zM343 477h53v-53h-53v53zM443 477h53v-53h-53v53zM243 378h53v-52h-53v52zM343 378h53v-52h-53v52zM443 378h53v-52h-53v52zM243 278h53v-53h-53v53zM343 278h53v-53h-53v53zM443 278h53v-53h-53
v53zM243 178h53v-53h-53v53zM343 178h53v-53h-53v53zM443 178h53v-53h-53v53zM243 78h53v-52h-53v52zM343 78h53v-52h-53v52zM443 78h53v-52h-53v52zM742 578h52v-53h-52v53zM742 477h52v-53h-52v53zM742 378h52v-52h-52v52zM742 278h52v-53h-52v53zM742 178h52v-53h-52v53z
M742 78h52v-52h-52v52zM906 -115q-9 0 -15 6t-6 14v718l-266 107q-8 3 -11 11t0 15.5t11 11t16 0.5l278 -112q13 -5 13 -19v-732q0 -8 -6 -14t-14 -6z" />
    <glyph glyph-name="second" unicode="&#x2033;" 
d="M520 -51q-140 0 -260 67l-202 -57l48 202q-67 104 -67 221q0 88 38 169t102.5 140t153.5 94t186.5 35t186.5 -35t153.5 -94t103 -140t38.5 -169q0 -87 -38.5 -167t-103 -138t-153.5 -93t-186 -35v0zM270 79l9 -5q113 -67 241 -67q116 0 214.5 51.5t156 140t57.5 193
t-57.5 193t-156 140t-214.5 51.5t-214.5 -51.5t-156 -140t-57.5 -192.5q0 -101 62 -202l5 -10l-34 -140zM775 386.5q0 -21.5 -16 -37t-37.5 -15.5t-37 15.5t-15.5 37t15.5 37.5t37 16t37.5 -16t16 -37.5zM597 386.5q0 -21.5 -15.5 -37t-37.5 -15.5t-37.5 15.5t-15.5 37
t15.5 37.5t37.5 16t37.5 -16t15.5 -37.5zM419 386.5q0 -21.5 -15.5 -37t-37.5 -15.5t-37.5 15.5t-15.5 37t15.5 37.5t37.5 16t37.5 -16t15.5 -37.5z" />
    <glyph glyph-name="uni2034" unicode="&#x2034;" horiz-adv-x="1410" 
d="M373 308h116v-115h-116v115zM331 740q0 19 -13 32t-31 13h-85q-19 0 -32 -13t-13 -32v-157l174 145v12zM615 81v-134h-382v498l363 308l208 -176q63 33 134 42l-303 257q-17 14 -38.5 14t-38.5 -14l-484 -410q-19 -16 -21 -40.5t14 -43t40.5 -20.5t43.5 13l8 7v-472
q0 -15 10.5 -26t26.5 -11h597q-61 35 -107 88.5t-71 119.5v0zM990 584q-97 0 -178.5 -47.5t-129.5 -129.5t-48 -178.5t48 -178.5t129.5 -129.5t178 -47.5t178.5 47.5t129.5 129.5t47.5 178.5t-47.5 178.5t-129.5 129.5t-178 47.5v0zM990 -43q-113 0 -192.5 79.5t-79.5 192
t79.5 192t192 79.5t192 -79.5t79.5 -192t-79.5 -192t-191.5 -79.5v0zM1115 150q10 0 16.5 -6t6.5 -14t-7 -13.5t-16 -5.5h-112v-70q0 -7 -6.5 -13t-17.5 -6q-9 0 -15.5 6t-6.5 13v70h-113q-9 0 -15.5 5.5t-6.5 14.5q0 8 6.5 13.5t15.5 5.5h113v60h-113q-9 0 -15.5 5.5
t-6.5 14.5q0 7 6.5 12.5t15.5 5.5h95l-98 158q-5 7 -1.5 14.5t12.5 11.5q8 3 17 0.5t13 -8.5l99 -158l98 159q4 7 13 9t18 -2q9 -3 11.5 -10.5t-1.5 -14.5l-98 -159h93q10 0 16.5 -5.5t6.5 -14t-6.5 -13.5t-16.5 -5h-112v-60h112zM1115 150z" />
    <glyph glyph-name="uni2035" unicode="&#x2035;" 
d="M896 551q0 11 -7 19t-17 8t-17 -8l-343 -374l-343 374q-7 8 -17 8t-17 -8t-7 -18.5t7 -18.5l360 -392q7 -8 17 -8t17 8l360 392q7 8 7 18z" />
    <glyph glyph-name="uni2036" unicode="&#x2036;" 
d="M363 -50l377 5q40 25 57 55q74 132 125 265q45 120 14 180q-20 37 -70 49q-16 4 -60 4q-53 0 -113 -5l-33 -2l3 33q14 101 13.5 175t-23.5 99q-16 18 -54 18q-31 0 -48 -16q-27 -28 -25 -127v-26q-5 -122 -143 -182q-48 -21 -105 -31v-1v-549h-191q-28 0 -47.5 19.5
t-19.5 47.5v468q0 27 19.5 46.5t47.5 19.5h161q59 7 113 31q106 47 109 133v23q0 36 1 57.5t11 55.5t30 54q32 33 87 33q63 0 96 -37q34 -38 36 -125q2 -54 -9 -158v-1h1q46 2 82 2q52 0 74 -5q75 -18 106 -77q43 -82 -11 -225q-52 -137 -129 -274q-12 -22 -34.5 -42
t-33 -26.5t-17.5 -10.5l-5 -3l-391 -6zM87 440q-5 0 -8 -3.5t-3 -7.5v-468q0 -5 3 -8t8 -3h135v490h-135z" />
    <glyph glyph-name="uni2037" unicode="&#x2037;" 
d="M251 377q18 -55 51 -84.5t68 -29.5t68 30t51 84q12 7 23 23.5t13 32.5q7 51 -21 51q-4 58 -37 94.5t-95 36.5q-63 0 -97.5 -35t-38.5 -96q-28 0 -21 -51q2 -16 12.5 -32.5t23.5 -23.5zM544 255l-57 11l-117 -234l-118 234l-56 -11q-58 -12 -95 -56.5t-37 -101.5v-159h612
v159q0 57 -37.5 101.5t-94.5 56.5zM735 832q-93 0 -159 -56.5t-66 -136.5q0 -44 21.5 -82.5t58.5 -65.5l26 -77q3 -10 13 -14t19 1l87 44q93 0 159 56.5t66 137t-66 137t-159 56.5zM696 545q0 19 15 27t30 0t15 -27q0 -20 -15 -28t-30 0t-15 28zM750 591h-45q-1 20 2.5 33
t16.5 29q18 20 19 34t-8.5 18t-23.5 2t-25 -9l-11 37q20 12 48 14t50.5 -11.5t22.5 -41.5q0 -17 -7.5 -30t-16 -20t-15.5 -21t-7 -34z" />
    <glyph glyph-name="uni2345" unicode="&#x2345;" horiz-adv-x="1112" 
d="M960 46v-2q0 -31 12.5 -75.5t24.5 -65.5q2 -4 2 -9q0 -9 -6.5 -15.5t-15.5 -6.5h-3h-3q-50 8 -107.5 51.5t-80.5 71.5q-20 -3 -43 -3h-10h-10q-104 0 -187.5 36.5t-136.5 100.5l97 2h3q88 -70 224 -70q39 1 53 3l37 5q2 -4 8 -12.5t29.5 -32.5t53.5 -46q-3 10 -5 38.5
t-3 49.5t-1 24l34 17q61 31 88.5 72.5t27.5 97.5q0 48 -16.5 81.5t-59.5 63.5q14 43 17 75q68 -39 98.5 -93t30.5 -127q0 -153 -152 -231zM461 202h-12h-11q-27 0 -50 4q-22 -26 -101.5 -77.5t-137.5 -60.5h-1h-2h-4q-11 0 -18.5 7.5t-7.5 17.5q0 5 2 10q59 102 59 150v1v1
q-86 44 -131.5 127t-45.5 176q0 92 60.5 170t165 123t228 45t227 -45t163 -123t59.5 -170q1 -104 -57 -185.5t-159 -126t-226 -44.5zM453.5 827q-104.5 0 -193 -36t-140 -98t-51.5 -135t36 -139.5t104 -101.5l38 -20l-4 -42q1 -22 -22 -88q27 16 56 39.5t38 33.5l44 37
l39 -3q15 -2 31 -3t25 0h9q159 0 264.5 81.5t106.5 205.5q0 73 -50.5 135t-138 98t-192 36z" />
    <glyph glyph-name="uni2346" unicode="&#x2346;" 
d="M728 -19q-68 0 -171 66t-194.5 158t-157.5 195t-66 171q0 82 77 186l3 3q17 23 46 23q27 0 44 -21l148 -178q15 -15 15 -38q0 -24 -17 -41l-28 -28q-9 -9 -9 -22q0 -12 9 -21l175 -175q8 -9 21 -9t21 9l29 29q16 15 38 15.5t38 -12.5l172 -142q20 -17 20 -43
q0 -27 -21 -45q-5 -3 -8 -6q-3 -2 -5 -3q-23 -18 -61 -39q-49 -27 -107 -32h-6h-3h-2v0zM265 751q-13 0 -21 -10l-3 -3q-70 -96 -70 -167q0 -60 64 -157.5t151.5 -185t184.5 -151.5t157 -64h4h5q50 4 93 28q37 20 58 36q1 1 3 2l2 2q5 3 7 5q10 8 10 20t-9 19l-172 142
q-7 6 -17 5.5t-17 -7.5l-28 -29q-18 -17 -44 -17t-44 17l-175 176q-18 18 -18 43.5t18 43.5l29 29q7 7 7 18q0 10 -7 17l-148 179q-8 10 -20 10v-1zM728 -33q-75 0 -178 67t-197 161.5t-161 197.5t-67 178q0 86 80 194l2 4q22 29 58 29q34 0 55 -26l148 -178q18 -20 18 -48
q0 -30 -21 -51l-28 -28q-5 -5 -5 -12q0 -6 5 -11l175 -175q4 -4 11 -4t11 4l29 29q19 18 47.5 19.5t48.5 -15.5l172 -141q25 -22 25 -55q0 -34 -27 -56l-13 -9q-23 -18 -63 -40q-52 -29 -113 -34h-12zM265 769q-22 0 -35 -18l-2 -3q-75 -100 -75 -177q0 -62 60 -158.5
t160 -197t196.5 -160.5t158.5 -60l10 1q55 4 101 30q38 21 60 38l11 7q17 14 17 35q0 20 -15 33l-172 141q-11 10 -28.5 9t-28.5 -11q-28 -28 -28 -29q-13 -13 -32 -13t-31 12l-176 176q-13 13 -13 31q0 19 13 32l29 28q12 13 12 31q0 17 -11 29l-148 178q-13 16 -33 16z
M728 -2q-63 0 -163 65t-189.5 154.5t-154.5 189.5t-65 164q0 76 74 175l3 4q11 15 31 15.5t32 -14.5l148 -178q10 -12 10 -27q0 -17 -11 -28l-29 -29q-14 -14 -14 -33.5t14 -33.5l176 -176q12 -12 33 -12t34 12l28 29q11 11 27 11.5t26 -8.5l172 -142q14 -11 14 -30t-15 -31
q-2 -2 -8 -6l-4 -3q-21 -16 -60 -37q-46 -26 -99 -30zM265 737q-6 0 -10 -5l-2 -3q-68 -92 -68 -158q0 -57 63 -151.5t149 -180.5t180 -149t151 -63h9q46 4 86 27q37 20 57 35l5 3q5 4 6 5q4 4 4 9t-3 8l-172 142q-8 6 -15 -1l-28 -29q-21 -21 -54 -21t-54 21l-175 176
q-22 22 -22 53.5t22 53.5l29 29q3 3 3 7.5t-4 8.5l-148 179q-4 4 -9 4zM265 737z" />
    <glyph glyph-name="uni2347" unicode="&#x2347;" 
d="M928 736h-96v96h-64v-96h-512v96h-64v-96h-96q-13 0 -22.5 -9.5t-9.5 -22.5v-736q0 -13 9.5 -22.5t22.5 -9.5h832q13 0 22.5 9.5t9.5 22.5v736q0 13 -9.5 22.5t-22.5 9.5zM896 672v-128h-768v128h768zM128 0v480h768v-480h-768z" />
    <glyph glyph-name="uni2410" unicode="&#x2410;" 
d="M510.5 834q-88.5 0 -163.5 -43.5t-119 -118.5t-44 -164q0 -77 35 -145q20 -40 49 -72l242 -354l242 354q30 32 50 72q34 68 34 145q0 89 -43.5 164t-118.5 118.5t-163.5 43.5zM685 516q0 -72 -51.5 -123t-123.5 -51t-123 51t-51 123t51 123t123 51t123.5 -51t51.5 -123z
" />
    <glyph glyph-name="uni2411" unicode="&#x2411;" 
d="M512.5 883q-101.5 0 -194 -39.5t-159.5 -106.5t-106.5 -159.5t-39.5 -194.5t39.5 -194.5t106.5 -159.5t159.5 -106.5t194 -39.5t194 39.5t159.5 106.5t107 159.5t40 194.5t-40 194.5t-107 159.5t-159.5 106.5t-194 39.5zM508.5 -22q-109.5 0 -202.5 54t-147 147t-54 203
t54 203t147 147t202.5 54t202.5 -54t147 -147t54 -203t-54 -203t-147 -147t-202.5 -54zM625 359h-114v193q0 16 -11.5 27t-27 11t-27 -11t-11.5 -27v-231q0 -16 11.5 -27t27.5 -11h152q16 0 27 11t11 26.5t-11 27t-27 11.5z" />
    <glyph glyph-name="uni2488" unicode="&#x2488;" 
d="M803 737l-291 -291l-291 291l-62 -62l291 -291l-291 -291l62 -62l291 291l291 -291l62 62l-291 291l291 291z" />
    <glyph glyph-name="uni2546" unicode="&#x2546;" 
d="M843 -115h-663q-34 0 -57.5 26t-23.5 62v805q0 37 23.5 62.5t57.5 25.5h663q33 0 57 -25.5t24 -62.5v-531q0 -9 -6 -14.5t-14.5 -5.5t-14.5 5.5t-6 14.5v531q0 20 -11.5 34t-28.5 14h-663q-17 0 -28.5 -14t-11.5 -34v-805q0 -19 11.5 -33t28.5 -14h663q17 0 28.5 14
t11.5 33v60q0 9 6 15t14.5 6t14.5 -6t6 -15v-60q0 -36 -24 -62t-57 -26zM337 182q-9 0 -14.5 6t-5.5 15v173q0 8 5.5 14t14 6t14.5 -6t6 -14v-173q0 -9 -6 -15t-14 -6zM423 269h-173q-8 0 -14 6t-6 14.5t6 14t14 5.5h173q9 0 15 -5.5t6 -14t-6 -14.5t-15 -6zM423 23h-173
q-8 0 -14 5.5t-6 14t6 14.5t14 6h173q9 0 15 -6t6 -14.5t-6 -14t-15 -5.5zM772 188h-173q-8 0 -14 6t-6 14.5t6 14.5t14 6h173q9 0 15 -6t6 -14.5t-6 -14.5t-15 -6zM772 355h-173q-8 0 -14 6t-6 14.5t6 14.5t14 6h173q9 0 15 -6t6 -14.5t-6 -14.5t-15 -6zM772 21h-173
q-8 0 -14 6t-6 14.5t6 14.5t14 6h173q9 0 15 -6t6 -14.5t-6 -14.5t-15 -6zM715 478h-407q-32 0 -55 23t-23 55v91q0 32 23 55t55 23h407q32 0 55 -23t23 -55v-91q0 -32 -23 -55t-55 -23zM308 684q-15 0 -26 -11t-11 -26v-91q0 -15 11 -26t26 -11h407q15 0 26 11t11 26v91
q0 15 -11 26t-26 11h-407z" />
    <glyph glyph-name="SF460000" unicode="&#x2568;" 
d="M258 359q-8 0 -14 6t-6 14.5t6 14.5l486 485q6 6 14.5 6t14 -6t5.5 -14t-6 -14l-485 -486q-6 -6 -15 -6zM744 -127q-8 0 -14 6l-402 401q-6 6 -6 14.5t6 14.5t14.5 6t14.5 -6l401 -401q6 -6 6 -14.5t-5.5 -14.5t-14.5 -6z" />
    <glyph glyph-name="SF400000" unicode="&#x2569;" 
d="M0 896v-1024h1024v1024h-1024zM960 -64h-896v896h896v-896z" />
    <glyph glyph-name="uni2570" unicode="&#x2570;" 
d="M445 160q10 -10 24 -10.5t25 9.5q2 1 64 104t123 205l61 101q7 12 3.5 25.5t-16 20t-26.5 3t-21 -15.5l-221 -366l-124 109q-9 10 -23.5 10t-25.5 -9q-10 -9 -10.5 -23t9.5 -24zM0 896v-1024h1024v1024h-1024zM960 -64h-896v896h896v-896z" />
    <glyph glyph-name="uni2571" unicode="&#x2571;" 
d="M413.5 142q-14.5 0 -24.5 10l-264 264q-10 10 -10 24.5t10.5 24.5t24.5 10t25 -10l238 -239l436 436q11 11 25.5 11t24.5 -10.5t10 -25t-10 -24.5l-461 -461q-10 -10 -24.5 -10z" />
    <glyph glyph-name="uni2589" unicode="&#x2589;" 
d="M972 373q-6 37 -32.5 66t-67.5 42q-36 11 -119 31q36 51 55 105t19 96t-13 76q-13 30 -36 46t-53 16q-22 0 -39.5 -7.5t-28 -17t-20 -27.5t-13 -28.5t-9.5 -29.5q-5 -14 -7 -22q-11 -32 -60.5 -80t-119.5 -87q-73 -41 -147 -100q-16 -12 -16 -32v-400q0 -21 17 -34
q42 -30 165 -53.5t209 -23.5q62 0 88 15q58 32 156 305q40 30 58.5 67.5t13.5 76.5v0zM122 492q-28 0 -47.5 -20t-19.5 -47v-409q0 -27 19.5 -47t47.5 -20t47.5 20t19.5 47v409q0 27 -19.5 47t-47.5 20v0zM122 492z" />
    <glyph glyph-name="uni2985" unicode="&#x2985;" horiz-adv-x="1040" 
d="M440 -109l-356 498l89 89l644 -286zM138 385l311 -436l290 233l-557 247zM998 -34h-107v508h107v-508zM932 7h26v426h-26v-426zM509 365l-510 291l515 221l510 -365zM90 651l424 -242l418 119l-423 302z" />
    <glyph glyph-name="uni3000" unicode="&#x3000;" 
d="M637 334q43 21 76 54q83 84 83 202t-83.5 201.5t-201.5 83.5t-201.5 -83.5t-83.5 -201.5t83 -202q33 -33 76 -54q-132 -42 -217.5 -158t-88.5 -263q1 -9 7 -14.5t14 -5.5h1h821q8 0 14 5.5t8 14.5q-4 147 -89.5 263t-217.5 158z" />
    <glyph glyph-name="uni3001" unicode="&#x3001;" 
d="M731 896h-438q-31 0 -52 -21.5t-21 -51.5v-878q0 -30 21 -51.5t52 -21.5h438q31 0 52 21.5t21 51.5v878q1 30 -20.5 51.5t-52.5 21.5zM408 853h208q10 0 10 -10.5t-10 -10.5h-208q-10 0 -10 10.5t10 10.5zM512 -91q-15 0 -26 10.5t-11 25.5t11 26t26 11t26 -11t11 -26
t-11 -25.5t-26 -10.5zM733 41q0 -9 -7 -16t-16 -7h-396q-9 0 -16 7t-7 16v724q0 9 7 16t16 7h396q9 0 16 -7t7 -16v-724z" />
    <glyph glyph-name="uni3002" unicode="&#x3002;" 
d="M512 874q-100 0 -190.5 -38.5t-156.5 -104.5t-104.5 -156.5t-38.5 -190.5t38.5 -190.5t104.5 -156.5t156.5 -104.5t190.5 -38.5t190.5 38.5t156.5 104.5t104.5 156.5t38.5 190.5t-38.5 190.5t-104.5 156.5t-156.5 104.5t-190.5 38.5zM704 382v-50h-161v-67h161v-50h-161
v-150h-62v150h-159v50h159v67h-159v50h152l-178 316h71l146 -259l146 259h71l-179 -316h153z" />
    <glyph glyph-name="uni3003" unicode="&#x3003;" horiz-adv-x="1032" 
d="M996 -108h-968q-8 0 -14 6t-6 14.5t6 14.5t14 6h968q8 0 14 -6t6 -14.5t-6 -14.5t-14 -6zM794 113v74l-485 486l-77 -76l490 -484h72zM164 529l512 -515l23 80l-488 482zM353 760l-106 106q-10 10 -23.5 10t-22.5 -10l-163 -163q-10 -10 -10 -23.5t10 -22.5l105 -106z
M885 227l-511 511l-44 -43l483 -484zM900 206l2 -6l-78 -18v-84q0 -6 -4.5 -10.5t-10.5 -4.5h-82l-23 -82l292 -89z" />
    <glyph glyph-name="uni3004" unicode="&#x3004;" 
d="M147 95h105v-105h-105v105zM460 95h104v-105h-104v105zM773 95h104v-105h-104v105zM147 303h105v-104h-105v104zM460 303h104v-104h-104v104zM773 303h104v-104h-104v104zM147 512h105v-105h-105v105zM460 512h104v-105h-104v105zM460 720h104v-104h-104v104zM512 877
l-156 -157v-104h-313v-730h938v521h-312v313z" />
    <glyph glyph-name="uni3598" unicode="&#x3598;" 
d="M379 182q3 -3 6 -7q42 -53 94 -96l32 -26l32 26q50 41 94 97q3 3 5 7q138 187 161 323q4 25 4 41q0 127 -89 216q-86 87 -207 87t-207 -87q-90 -89 -89 -217q0 -16 3 -40q13 -78 60.5 -165t100.5 -159zM506.5 723q56.5 0 96.5 -40t40 -96.5t-40 -96t-96.5 -39.5
t-96.5 39.5t-40 96t40 96.5t96.5 40zM961 539l-100 -29q0 -3 -9 -70l114 45v-455l-305 -83l-350 104l-255 -89v432l114 23q-1 5 -2 15t-2.5 18.5t-4.5 16.5v2l-150 -39v-536l50 18l250 85l350 -103l350 104v556z" />
    <glyph glyph-name="uni3658" unicode="&#x3658;" horiz-adv-x="1032" 
d="M604 247q-6 -7 -13 -8t-18.5 5t-20.5 12.5t-28 22.5q-9 7 -13 11q-1 0 -53.5 51.5t-52.5 52.5q-11 14 -17 22t-12 19.5t-5 20.5t9 17l9 9l-149 150l-9 -9q-10 -13 -16.5 -31.5t-5.5 -53t14.5 -73.5t51 -94.5t96.5 -115.5q62 -63 120.5 -103t100.5 -55t78.5 -16t57 6.5
t33.5 19.5l-148 149zM428 521q16 17 16 40t-16 39l-70 71q-17 16 -40 16t-39 -16l-21 -21l148 -150q6 5 22 21zM799 226l-70 70q-16 16 -40 14t-41 -19l-17 -17l147 -149q4 4 22 21q16 17 16 40t-17 40zM967 -112h-910q-21 0 -35.5 14.5t-14.5 35.5v892q0 20 14.5 34.5
t35.5 14.5h910q20 0 34.5 -14.5t14.5 -34.5v-892q0 -21 -14.5 -35.5t-34.5 -14.5zM57 838q-9 0 -9 -8v-892q0 -9 9 -9h910q9 0 9 9v892q0 8 -9 8h-910z" />
    <glyph glyph-name="uni3659" unicode="&#x3659;" 
d="M46 -124v680l210 53l5 -19q4 -17 14 -51q6 -24 17 -55q9 -28 21 -55q11 -26 26 -51l2 -5v-423zM86 525v-597l215 53v382q-14 24 -25 50q-13 29 -22 58q-11 33 -18 57q-6 21 -9 32zM661 -124l-297 73v388l35 -38q29 -32 57 -58q25 -24 50 -47q19 -17 37 -31q5 5 14 13h1
q12 10 29 27v1l40 38l34 33v-399zM405 -19l216 -53v252q-4 -3 -6 -5q-18 -18 -31 -30q-18 -15 -28 -23l-13 -11l-12 10q-25 19 -52 43q-26 24 -51 47q-11 12 -23 24v-254zM684 -124v426l6 6q6 5 11 11q7 8 12 14q19 20 35 49q17 31 30 64q13 34 24 69q10 33 19 66l3 11
l156 39v-681zM724 285v-357l216 53v598l-83 -20q-8 -28 -16 -55q-12 -37 -25.5 -72.5t-32.5 -68.5t-40 -58h-1v-1q-5 -4 -11 -11q-3 -4 -7 -8zM543 218q-16 0 -29 13q-43 40 -80 83q-37 45 -65 93t-47 101t-24 109v1v1v8q-1 6 -1 12q0 50 20 94q19 43 52 76q34 33 78 52
q45 18 96 18t95.5 -18.5t77.5 -51.5q34 -33 53 -76q20 -44 20 -94v-13q0 -7 -1 -15q-7 -56 -25 -107q-19 -52 -48 -99q-28 -47 -65 -91q-35 -42 -78 -83q-13 -13 -29 -13zM338 620q5 -51 22 -99q18 -49 44 -94t61 -87t76 -80h1q0 -1 1 -1l1 1q42 39 75 79q35 42 62 86
q27 45 44 92t23 99v1q1 5 1 9v13q0 42 -17 77q-16 37 -44 64q-28 28 -65 43q-37 16 -80 16t-80 -15.5t-65 -43.5q-28 -27 -45 -64q-16 -36 -16 -77q0 -4 1 -8v-11zM543 525q-25 0 -46 8q-21 9 -36 25q-16 15 -25 36t-9 45t9 45q10 21 25 36t36 24t46 9q24 0 46 -9t37 -24
t24.5 -36t9.5 -45t-9 -45q-10 -21 -25 -36q-16 -16 -37 -25q-22 -8 -46 -8zM473 667q-6 -13 -6 -28.5t6 -28.5q6 -14 16 -24t24 -15q13 -6 30 -6t30 6h1q14 5 24 15t16 24q6 13 6 28.5t-6 28.5q-6 14 -16 24t-24 16q-15 6 -31.5 6t-29.5 -6q-14 -6 -24 -16t-16 -24z" />
  </font>
</defs>
</svg>
