<?xml version="1.0" standalone="no"?>
<!DOCTYPE svg PUBLIC "-//W3C//DTD SVG 1.1//EN" "http://www.w3.org/Graphics/SVG/1.1/DTD/svg11.dtd" >
<svg xmlns="http://www.w3.org/2000/svg">
<metadata>
Created by FontForge 20120731 at Mon Aug 15 11:20:36 2016
 By admin
</metadata>
<defs>
<font id="iconfont" horiz-adv-x="1024" >
  <font-face 
    font-family="iconfont"
    font-weight="500"
    font-stretch="normal"
    units-per-em="1024"
    panose-1="2 0 6 3 0 0 0 0 0 0"
    ascent="896"
    descent="-128"
    x-height="792"
    bbox="0 -128 1024 896"
    underline-thickness="50"
    underline-position="-100"
    unicode-range="U+0078-8987"
  />
<missing-glyph horiz-adv-x="374" 
d="M34 0v682h272v-682h-272zM68 34h204v614h-204v-614z" />
    <glyph glyph-name=".notdef" horiz-adv-x="374" 
d="M34 0v682h272v-682h-272zM68 34h204v614h-204v-614z" />
    <glyph glyph-name=".null" horiz-adv-x="0" 
 />
    <glyph glyph-name="nonmarkingreturn" horiz-adv-x="341" 
 />
    <glyph glyph-name="x" unicode="x" horiz-adv-x="1001" 
d="M281 543q-27 -1 -53 -1h-83q-18 0 -36.5 -6t-32.5 -18.5t-23 -32t-9 -45.5v-76h912v41q0 16 -0.5 30t-0.5 18q0 13 -5 29t-17 29.5t-31.5 22.5t-49.5 9h-133v-97h-438v97zM955 310v-52q0 -23 0.5 -52t0.5 -58t-10.5 -47.5t-26 -30t-33 -16t-31.5 -4.5q-14 -1 -29.5 -0.5
t-29.5 0.5h-32l-45 128h-439l-44 -128h-29h-34q-20 0 -45 1q-25 0 -41 9.5t-25.5 23t-13.5 29.5t-4 30v167h911zM163 247q-12 0 -21 -8.5t-9 -21.5t9 -21.5t21 -8.5q13 0 22 8.5t9 21.5t-9 21.5t-22 8.5zM316 123q-8 -26 -14 -48q-5 -19 -10.5 -37t-7.5 -25t-3 -15t1 -14.5
t9.5 -10.5t21.5 -4h37h67h81h80h64h36q23 0 34 12t2 38q-5 13 -9.5 30.5t-9.5 34.5q-5 19 -11 39h-368zM336 498v228q0 11 2.5 23t10 21.5t20.5 15.5t34 6h188q31 0 51.5 -14.5t20.5 -52.5v-227h-327z" />
    <glyph glyph-name="uni1444" unicode="&#x1444;" 
d="M671 538q15 0 31 -2q-20 93 -113 154.5t-212 61.5q-87 0 -161 -34.5t-117.5 -95t-43.5 -131.5q0 -122 129 -208l-32 -93l112 54q82 -15 113 -15q14 0 30 1q-10 32 -10 64q0 102 80 173t194 71zM498 622q18 0 29 -11t11 -28t-11 -27.5t-29 -10.5q-19 0 -33.5 10.5
t-14.5 27.5t14.5 28t33.5 11zM272 545q-19 0 -33.5 10.5t-14.5 27.5t14.5 28t33.5 11t30 -11t11 -28t-11 -27.5t-30 -10.5zM966 298q0 92 -82.5 158t-191.5 66q-115 0 -194.5 -65.5t-79.5 -158.5t79.5 -158t194.5 -65q32 0 96 15l89 -46l-24 77q113 81 113 177zM603 337
q-12 0 -22 9.5t-10 21t10 21t22 9.5q17 0 28.5 -9t11.5 -21.5t-11 -21.5t-29 -9zM780 337q-12 0 -22 9.5t-10 21t10 21t22 9.5q18 0 29.5 -9t11.5 -21.5t-11.5 -21.5t-29.5 -9z" />
    <glyph glyph-name="uni1450" unicode="&#x1450;" 
d="M6 -128h506v1012h-506v-1012zM318 759h127v-127h-127v127zM318 505h127v-127h-127v127zM318 253h127v-127h-127v127zM69 759h127v-127h-127v127zM69 505h127v-127h-127v127zM69 253h127v-127h-127v127zM575 564h443v-58h-443v58zM575 -128h127v221h190v-221h126v564h-443
v-564z" />
    <glyph glyph-name="uni1455" unicode="&#x1455;" 
d="M434 -72q0 45 18 107t29 87t18 40l-45 34q0 7 3 14t8.5 13.5t11.5 12.5t12 11t11.5 8.5t8.5 5.5l3 2q6 -4 16 -10.5t26 -24.5t16 -32l-45 -34q7 -15 18 -40t29 -87t18 -107q0 -8 -39 -10.5t-78 1t-39 9.5zM654 267q-3 1 -7 3.5t-10 9.5t-9.5 16.5t-2.5 26.5t8 38
q50 51 82.5 125.5t32.5 149.5q0 115 -68 179t-168 64t-167.5 -64t-67.5 -179q0 -76 32 -150.5t84 -124.5q7 -26 7 -42.5t-9 -28t-16 -16.5t-12 -7q-73 -25 -135 -57.5t-108 -75.5t-46 -83v-31q0 -41 38 -70t104.5 -43.5t138 -21t158.5 -6.5q437 0 437 141v31
q0 41 -46.5 84.5t-110.5 75.5t-139 56z" />
    <glyph glyph-name="uni1456" unicode="&#x1456;" 
d="M512 879q-100 0 -185.5 -48.5t-135 -132t-49.5 -181.5q0 -56 38 -142.5t92.5 -170.5t109 -159.5t92.5 -121.5l38 -47q15 18 40 49t88.5 117.5t112.5 163.5t89 166t40 145q0 98 -49.5 181.5t-135 132t-185.5 48.5zM512 457q-44 0 -75 31t-31 74.5t31 74.5t75 31t75 -31
t31 -74.5t-31 -74.5t-75 -31z" />
    <glyph glyph-name="uni1458" unicode="&#x1458;" horiz-adv-x="1027" 
d="M77 153h99v-101h-99v101zM77 326h99v-101h-99v101zM77 506h99v-102h-99v102zM15 -80h222v635h-222v-635zM756 90h99v-101h-99v101zM872 247h99v-102h-99v102zM756 400h99v-101h-99v101zM842 814v-109h-39v-118h-54v-121h-43v-546h305v546h-44v121h-54v118h-39v109h-32z
M336 151h98v-101h-98v101zM506 151h99v-101h-99v101zM421 303h99v-101h-99v101zM336 454h98v-101h-98v101zM506 454h99v-101h-99v101zM421 606h99v-101h-99v101zM336 757h98v-101h-98v101zM506 757h99v-101h-99v101zM289 -80h370v930h-370v-930z" />
    <glyph glyph-name="uni1469" unicode="&#x1469;" 
d="M924 549q-34 77 -93.5 137t-137.5 94q45 35 101 35q69 0 117 -48.5t48 -116.5q0 -56 -35 -101zM917 367q0 -80 -29 -151.5t-82 -127.5l57 -56q12 -13 12 -30t-12 -29t-29.5 -12t-29.5 12l-61 61q-105 -73 -232 -73t-232 73l-60 -61q-13 -12 -30.5 -12t-29.5 12t-12 29.5
t12 29.5l57 57q-53 55 -82 127t-29 151q0 110 54.5 203.5t148 148t203.5 54.5t203.5 -54.5t148 -148t54.5 -203.5zM510.5 689q-87.5 0 -161.5 -43t-117 -117.5t-43 -162t43 -161.5t117 -117t161.5 -43t162 43t117.5 117t43 161.5t-43 162t-117.5 117.5t-162 43zM679 325
h-168q-17 0 -29.5 12t-12.5 30v224q0 17 12.5 29.5t29.5 12.5t29.5 -12.5t12.5 -29.5v-182h126q17 0 29.5 -12.5t12.5 -30t-12.5 -29.5t-29.5 -12zM99 543q-36 46 -36 104q0 69 49 118.5t119 49.5q58 0 104 -36q-80 -34 -141 -95.5t-95 -140.5z" />
    <glyph glyph-name="uni1568" unicode="&#x1568;" 
d="M200 428l-2 6l-1 6l-1 4v15l1 6l2 7l2 6l3 8l4 8l5 7v6l1 5l1 7l2 7l2 9l2 4l2 3l2 4l3 3v19l2 10l1 11l3 14l4 14l3 8l3 9l3 8l4 8l4 9l5 9l5 9l6 10l3 5l3 4l7 10l7 10l8 10l8 10l10 10l9 10l12 10l7 7l9 7l10 6l10 6l9 5l11 5l11 5l12 4l11 4l12 4l12 2l13 3l13 2
l26 3l14 1h40l14 -1l13 -2l14 -2l13 -3l13 -3l13 -3l14 -4l13 -4l12 -5l13 -6l12 -6l12 -6l11 -8l10 -6l4 -4l5 -3l9 -8l8 -7l7 -8l8 -8l6 -9l7 -8l5 -9l5 -8l6 -10l4 -8l8 -17l4 -9l3 -9l3 -9l2 -8l2 -8l2 -8l5 -16l2 -13l2 -13l1 -10l3 -16v-3l2 -3l5 -8l3 -6l3 -5l4 -7
l3 -7l2 -8l3 -8l1 -9l1 -4l1 -5v-5l-1 -4v-6l-1 -5l-3 -11l-2 -5l-2 -6v-2l1 -1l2 -5l12 -17l10 -14l4 -9l6 -9l6 -11l6 -11l6 -13l7 -15l4 -8l3 -9l3 -9l3 -8l3 -9l2 -8l3 -16l2 -16l2 -14v-21l-1 -7l-2 -12l-2 -11l-3 -10l-1 -5l-3 -4l-2 -4l-2 -4l-3 -3l-2 -3l-3 -3
l-3 -2l-3 -2l-3 -1l-2 -1h-4l-2 1l-5 2l-2 1l-2 2l-3 2l-2 3l-4 4l-5 6l-3 6l-4 6l-4 6l-5 10l-5 11l-1 1h-1l-2 -2l-2 -3l-2 -4l-4 -10l-6 -16l-7 -18l-6 -9l-6 -10l-7 -10l-7 -11l-4 -5l-5 -5l-10 -10l1 -1l1 -2l5 -3l23 -10l9 -6l9 -5l10 -7l8 -7l4 -3l3 -3l3 -5l2 -4
l1 -4l2 -4l1 -4l1 -5l-1 -3v-3l-1 -3l-2 -3v-2l-2 -3l-4 -5l-3 -5l-3 -3l-3 -2l-6 -5l-7 -4l-7 -4l-8 -3l-9 -3l-5 -2l-4 -1l-10 -3l-11 -2l-10 -2l-12 -2h-12l-12 -2h-38l-14 1l-12 1l-14 2l-14 1l-14 2l-14 4l-13 3l-14 3l-14 5l-13 4l-7 3l-7 2l-4 2h-4h-11l-13 1l-7 1
l-8 1l-6 -5l-7 -5l-10 -5l-11 -6l-7 -3l-7 -3l-16 -6l-8 -2l-9 -3l-13 -2l-7 -1h-8l-9 -1l-10 -1h-41l-22 1l-23 2l-11 2l-11 1l-10 2l-11 2l-10 3l-10 2l-9 4l-8 3l-8 4l-7 4l-6 5l-3 2l-3 3l-2 3l-2 3l-2 3l-1 3l-2 6l-1 3l-1 4v3l1 4v3l1 4v8v4l2 4l1 5l3 5l2 2l1 3l5 5
l3 2l3 2l3 3l5 1l3 2l5 3l5 1l6 2l6 1l6 1l6 1l8 1h2l1 1v1l-1 2l-4 2l-10 8l-7 6l-7 6l-8 8l-8 10l-10 10l-3 6l-5 6l-4 7l-3 8l-5 7l-3 9l-4 8l-4 9l-2 9l-3 11l-1 1h-1v1h-1l-1 -1l-1 -1l-1 -2l-1 -2l-1 -2l-1 -3l-5 -8l-2 -5l-4 -4l-4 -5l-4 -6l-5 -5l-5 -5l-5 -5l-6 -3
l-6 -4l-6 -2l-7 -2l-6 -1h-2l-1 1l-2 2l-2 2l-2 6l-2 4l-2 4l-1 6l-1 5l-2 11l-1 7v22l1 17l1 8l2 9l1 10l3 8l3 10l3 10l4 10l3 10l6 10l4 10l6 10l7 11l7 10l7 11l7 7l7 9l9 8l3 4l5 5l7 6l7 6l11 10l9 6z" />
    <glyph glyph-name="uni1589" unicode="&#x1589;" 
d="M512 768q-264 -228 -411 -351q-16 -14 -16 -33q0 -18 12.5 -30.5t30.5 -12.5h85v-298q0 -18 12.5 -30.5t30.5 -12.5h128q18 0 30.5 12.5t12.5 30.5v170h170v-170q0 -18 12.5 -30.5t30.5 -12.5h128q18 0 30.5 12.5t12.5 30.5v298h85q18 0 30.5 12.5t12.5 30.5q0 20 -17 33
z" />
    <glyph glyph-name="uni1768" unicode="&#x1768;" 
d="M324 786h158v-53h-158v53zM193 485q0 -6 4 -10t10 -4h392q6 0 10 4t4 10v26q0 5 -4 9t-10 4h-392q-6 0 -10 -4t-4 -9v-26zM245 681h27q5 0 10 2.5t8.5 6t5.5 8t2 9.5v105q0 11 -7.5 19t-18.5 8h-27q-11 0 -18 -8t-7 -19v-105q0 -10 7 -18t18 -8zM521 685q6 -4 13 -4h26
q7 0 13 4t9.5 9.5t3.5 12.5v105q0 11 -7.5 19t-18.5 8h-26q-10 0 -18 -8t-8 -19v-105q0 -7 3.5 -12.5t9.5 -9.5zM945 492h-47v-116l47 -48v164zM692 705v-233h52v270q0 19 -14 31.5t-39 12.5h-78v-58h52q27 0 27 -23zM473 153v-190h449v190l-231 151zM867 132v-124h-339v124
l165 114zM114 170v521q-1 41 44 42h35v53h-85q-16 0 -27 -13t-14 -25.5t-4 -24.5v-601q0 -70 63 -70h277v52h-228q-15 0 -24 1.5t-18.5 7.5t-14 20t-4.5 37zM695 429l-293 -195v-67l290 195l301 -195v67zM199 314q-6 0 -6 -13v-26q0 -14 6 -14h165q2 0 3 1t1 3q1 3 1 5
q1 2 1 5v26q0 13 -6 13h-165zM63 722v1v3v-2v-2z" />
    <glyph glyph-name="uni1789" unicode="&#x1789;" 
d="M673 463q0 10 -7 17t-17 7h-338q-10 0 -17 -7t-7 -17t7 -17t17 -7h338q10 0 17 7t7 17zM805 846l-619 -2q-10 0 -17 -7t-7 -16.5t7 -16.5t17 -7l619 1q49 0 83 -34t34 -83v-592q0 -10 7 -17t17 -7t17 7t7 17v592q0 68 -48.5 116.5t-116.5 48.5zM637.5 318
q-65.5 0 -112 -46.5t-46.5 -112t46.5 -112t112 -46.5t112 46.5t46.5 112t-46.5 112t-112 46.5zM637 33q-52 0 -89 37t-37 89t37 89t89 37t89 -37t37 -89t-37 -89t-89 -37zM311 543h338q10 0 17 7t7 16.5t-7 16.5t-17 7h-338q-10 0 -17 -7t-7 -16.5t7 -16.5t17 -7zM731 182
q-4 10 -14 11l-45 7l-20 41q-4 8 -14.5 8t-15.5 -8l-20 -41l-45 -7q-10 -1 -13 -11t4 -17l33 -32l-8 -44q-2 -11 7 -17q8 -6 17 -1l40 21l41 -21q3 -2 7 -2q6 0 10 3q8 7 7 17l-8 44l32 32q8 7 5 17zM664 151q-6 -6 -4 -15l3 -20l-18 10q-4 2 -8 2t-7 -2l-18 -10l3 20
q2 9 -5 15l-14 14l20 3q8 2 12 9l9 19l9 -19q4 -7 13 -9l20 -3zM721 759h-511q-68 0 -116.5 -48t-48.5 -116v-507q0 -68 48.5 -116.5t116.5 -48.5h511q68 0 116.5 48.5t48.5 116.5v507q0 68 -48.5 116t-116.5 48zM721 -29h-511q-49 0 -83 34t-34 83v507q0 48 34 82.5
t83 34.5h511q49 0 83 -34.5t34 -82.5v-507q0 -49 -34 -83t-83 -34zM175 566.5q0 -11.5 8.5 -20t20 -8.5t20 8.5t8.5 20t-8.5 20t-20 8.5t-20 -8.5t-8.5 -20zM175 463q0 -12 8.5 -20t20 -8t20 8t8.5 20t-8.5 20t-20 8t-20 -8t-8.5 -20z" />
    <glyph glyph-name="uni1825" unicode="&#x1825;" 
d="M676 147q-75 -54 -167 -53q-12 0 -24 1q-2 1 -5 1.5t-4 0.5q-13 1 -18 3q-2 0 -11 2q-11 3 -18 5q-1 0 -4 1t-4 1q-12 4 -19 7q-1 1 -4 2q-13 6 -22 11q-1 0 -1 1q-36 20 -65 49q-1 0 -1 1q-9 9 -17 19q-1 1 -2 2.5t-2 1.5q-63 80 -63 181h67q3 0 4.5 2.5t-0.5 5.5
l-112 169q-1 2 -3.5 2t-4.5 -2l-111 -169q-2 -3 -0.5 -5.5t4.5 -2.5h66q0 -118 67 -216q0 -1 0.5 -1.5t0.5 -1.5q3 -3 14 -18q5 -6 5 -7q9 -10 22 -24l1 -1l1 -1q38 -38 85 -64l2 -2q12 -6 28 -13q1 -1 3 -2t4 -1q9 -4 24 -9l12 -4q7 -2 22 -6q12 -3 14 -3q1 0 3 -1t4 -1
q3 0 21 -3h4q2 0 3 -1q21 -2 38 -2q118 0 215 70q16 10 19 29t-7.5 34.5t-29 18.5t-34.5 -7zM889 384q0 118 -66 216q-1 0 -1.5 1t-0.5 2q-5 7 -17 21q0 1 -0.5 2t-1.5 1q-57 71 -140 107q-1 0 -2.5 1t-2.5 1q-11 5 -26 10q-1 0 -4.5 1.5t-5.5 1.5q-9 3 -24 6q-12 3 -13 3.5
t-3 1t-3 0.5q-3 0 -6 0.5t-6.5 1t-5.5 0.5q-1 0 -5.5 1t-7.5 1q-13 1 -30 1l-2 1h-3h-1q-118 -1 -215 -69q-15 -11 -18.5 -30t7 -34.5t29 -18.5t34.5 8q75 53 166 52q13 0 25 -1q2 0 4.5 -0.5t3.5 -0.5q11 -2 20 -3q1 -1 9 -2q11 -3 19 -5q1 -1 3 -1.5t3 -1.5q12 -3 22 -8h1
h1q64 -28 108 -82v-1q66 -80 66 -184h-67q-3 0 -4.5 -2.5t0.5 -4.5l112 -170q1 -2 3.5 -2t4.5 2l111 170q2 2 0.5 4.5t-4.5 2.5h-66z" />
    <glyph glyph-name="uni1859" unicode="&#x1859;" 
d="M327 758v-148h666v148h-666zM327 313h666v149h-666v-149zM327 17h666v148h-666v-148zM179 536h-74v74h-74v-371h74v74h74v74h74v75h-74v74z" />
    <glyph glyph-name="uni1888" unicode="&#x1888;" 
d="M363 -50l377 5q40 25 57 55q74 132 125 265q45 120 14 180q-20 37 -70 49q-16 4 -60 4q-53 0 -113 -5l-33 -2l3 33q14 101 13.5 175t-23.5 99q-16 18 -54 18q-31 0 -48 -16q-27 -28 -25 -127v-26q-5 -122 -143 -182q-48 -21 -105 -31v-1v-549h-191q-28 0 -47.5 19.5
t-19.5 47.5v468q0 27 19.5 46.5t47.5 19.5h161q59 7 113 31q106 47 109 133v23q0 36 1 57.5t11 55.5t30 54q32 33 87 33q63 0 96 -37q34 -38 36 -125q2 -54 -9 -158v-1h1q46 2 82 2q52 0 74 -5q75 -18 106 -77q43 -82 -11 -225q-52 -137 -129 -274q-12 -22 -34.5 -42
t-33 -26.5t-17.5 -10.5l-5 -3l-391 -6zM87 440q-5 0 -8 -3.5t-3 -7.5v-468q0 -5 3 -8t8 -3h135v490h-135z" />
    <glyph glyph-name="uni1895" unicode="&#x1895;" 
d="M480 590h158q7 0 7 8v9q0 6 -1.5 9t-7.5 3h-156q-4 0 -5.5 -2.5t-1.5 -9.5v-9q0 -8 7 -8zM480 510h155q10 0 10 12v11q0 7 -7 7h-158q-7 0 -7 -7v-15q0 -8 7 -8zM852 792q-165 39 -338 39q-174 0 -343 -39q-16 -4 -26 -16.5t-10 -28.5v-352q0 -103 50.5 -194t138.5 -145
l190 -117l186 116q87 55 137 145.5t50 193.5v353q0 16 -10 28.5t-25 16.5zM414 622q0 31 11.5 41t51.5 10h178q26 0 37.5 -11.5t11.5 -39.5v-115q0 -24 -9 -38q4 0 9.5 -2.5t9.5 -6.5t7 -9.5t3 -10.5q0 -11 -13 -22.5t-42 -29.5q-4 -3 -4 -5t4 -4q23 -13 33 -19
q14 -8 20 -13q14 -9 14 -20t-10 -22q-9 -11 -20 -11t-27 10q-71 45 -164 95q-18 10 -18 20t10 21q10 12 21 12q6 0 13 -3l60 -32q6 -3 8 -3q5 0 30 18q25 19 25 21t-8 2h-176q-7 0 -7 -7v-85q0 -7 5 -7t25 5q11 4 17 6t11 3q1 0 3.5 1t3.5 1q3 1 6 1q13 0 20 -11
q13 -21 1 -33q-6 -7 -30 -17q-26 -11 -50 -14q-11 -2 -21 -3q-8 -1 -14 -1q-20 0 -28 11t-8 37v280zM266 657q2 6 6 11t9.5 8.5t12.5 3.5q15 0 43 -17q14 -9 24 -15q11 -7 18 -12q8 -6 11.5 -12t3.5 -13q0 -12 -10 -22q-9 -11 -20 -11t-19 6q-19 15 -67 43q-14 8 -14 19
q0 5 2 11zM738 249q-1 -9 -5 -15q-5 -7 -13 -9q-8 -3 -45 -3q-37 -2 -68 -2q-61 0 -103 2q-42 3 -64 8q-46 9 -73 35q-6 6 -12 6q-5 0 -11 -4q-4 -5 -19 -24q-14 -20 -21 -24q-5 -4 -15 -4q-5 0 -11 2.5t-11 6.5t-8 9.5t-3 11.5q0 8 4 14q4 8 21 26l18 18q10 9 20 17
q2 3 2 7v133q0 7 -1.5 9t-6.5 2h-27q-13 0 -22 8t-9 20.5t9 20.5t22 8h55q23 0 31.5 -13.5t8.5 -42.5v-148q0 -3 2 -5q2 -3 17 -13q8 -5 16 -9q9 -4 19 -7t21 -5q12 -2 24.5 -3t32.5 -1.5t48 -0.5h53q27 1 49 2q23 1 35 2h13q9 1 15.5 -4.5t9.5 -13.5t2 -17z" />
    <glyph glyph-name="uni1896" unicode="&#x1896;" 
d="M14 879v-270h992v270h-992zM14 -113h271v631h-271v-631zM375 -113h631v631h-631v-631z" />
    <glyph glyph-name="uni1965" unicode="&#x1965;" 
d="M430 613l-134 -127q-6 -6 -6 -13v-104q0 -7 5.5 -12t13 -5t12.5 5t5 12v96l128 122q6 5 6 12.5t-5 12.5t-12.5 5.5t-12.5 -4.5zM308.5 323q-7.5 0 -13 -5t-5.5 -13v-36q0 -7 5.5 -12.5t13 -5.5t12.5 5.5t5 12.5v36q0 8 -5 13t-12.5 5zM993 422l-433 433q-9 8 -21 8
t-21 -8l-436 -436q-9 -9 -9 -21t9 -21t21.5 -9t20.5 9l59 58v-427q0 -28 19 -47t47 -19h577q27 0 46.5 19t19.5 47v430l59 -58q8 -9 20.5 -9t21.5 8.5t9 21t-9 21.5zM643 2h-190v243q0 8 5.5 13t12.5 5h154q7 0 12.5 -5t5.5 -13v-243zM832 8q0 -6 -6 -6h-147v243
q0 23 -16 38.5t-38 15.5h-154q-22 0 -38 -15.5t-16 -38.5v-243h-168q-6 0 -6 6v481q0 3 -1 6l297 296l293 -293v-490z" />
    <glyph glyph-name="uni2546" unicode="&#x2546;" 
d="M785 143q-11 0 -16 9q-4 6 -2 13.5t9 10.5q62 37 98 99q38 64 38 139q0 74 -37 138q-36 62 -97 99q-7 3 -8.5 10.5t2 13.5t10.5 8t14 -2q69 -41 110 -111q42 -72 42 -156t-43 -157q-41 -70 -112 -111q-4 -3 -8 -3zM690 259q-10 0 -15 8q-4 7 -2 14t8 11q32 19 51 50
q19 33 19 72q0 38 -19 70q-18 32 -50 51q-6 4 -7.5 11t2 13.5t10.5 8t14 -1.5q39 -24 62 -64q24 -41 24 -88q0 -48 -24 -90q-24 -40 -64 -63q-4 -2 -9 -2zM552 16q-34 0 -69 25l-35 24q-6 4 -7 11.5t3 13.5t11.5 7t13.5 -3l34 -24q11 -8 28 -14.5t29 -2.5q4 1 6 3t4 10t3 24
v647q-2 21 -5.5 27.5t-10.5 9.5q-11 5 -27 -2t-26 -15l-213 -159q-21 -17 -51 -26.5t-44.5 -10t-24.5 -0.5q-34 0 -59.5 -23t-29.5 -57l-2 -12v-111l2 -13q4 -34 29.5 -56.5t59.5 -22.5h2q28 0 57.5 -9.5t40.5 -15.5t17 -10q4 -3 10.5 -7.5t22 -18.5t29.5 -29t31 -39t28 -48
q3 -7 0.5 -14t-9 -10t-13.5 -0.5t-10 9.5q-16 34 -44.5 67t-42 43.5t-21.5 16.5q-46 30 -97 29h-1q-47 0 -83 32t-42 79v1l-1 14v115l1 15q6 47 42 79t83 32h1q7 -1 18 -0.5t36.5 8t42.5 21.5h1l212 159q12 10 28 17q35 17 61 5q17 -8 25 -21q10 -16 12 -48v-1v-648
q0 -17 -2 -28.5t-10.5 -24t-24.5 -17.5q-9 -3 -19 -3z" />
    <glyph glyph-name="SF400000" unicode="&#x2569;" 
d="M512 -128q-16 17 -41.5 47.5t-92 115.5t-117 161.5t-92 166.5t-41.5 149q0 159 112.5 271.5t271.5 112.5t271.5 -112.5t112.5 -271.5q0 -158 -265 -497q-66 -84 -119 -143zM512 832q-87 0 -160.5 -43.5t-116.5 -118t-43 -162.5q0 -50 33 -124t80 -144t94 -132.5
t80 -101.5l33 -38q13 15 34.5 40.5t77 97t97.5 136t76.5 140.5t34.5 126q0 88 -43 162.5t-116.5 118t-160.5 43.5zM512 384q-66 0 -113 47t-47 113t47 113t113 47t113 -47t47 -113t-47 -113t-113 -47zM512 640q-40 0 -68 -28t-28 -68t28 -68t68 -28t68 28t28 68t-28 68
t-68 28z" />
    <glyph glyph-name="uni3265" unicode="&#x3265;" 
d="M730 -63h-436q-42 0 -72 29.5t-30 71.5v692q0 42 30 71.5t72 29.5h436q42 0 72 -29.5t30 -71.5v-692q0 -42 -30 -71.5t-72 -29.5zM794 730q0 26 -19 44t-45 18h-436q-26 0 -45 -18t-19 -44v-692q0 -26 19 -44t45 -18h436q26 0 45 18t19 44v692zM698 52h-61
q-7 0 -12.5 5.5t-5.5 13.5v61q0 7 5.5 12.5t12.5 5.5h61q8 0 13 -5.5t5 -12.5v-61q0 -8 -5 -13.5t-13 -5.5zM698 188h-61q-7 0 -12.5 5.5t-5.5 13.5v61q0 7 5.5 12.5t12.5 5.5h61q8 0 13 -5.5t5 -12.5v-61q0 -8 -5 -13.5t-13 -5.5zM698 324h-61q-7 0 -12.5 5.5t-5.5 13.5v61
q0 7 5.5 12.5t12.5 5.5h61q8 0 13 -5.5t5 -12.5v-61q0 -8 -5 -13.5t-13 -5.5zM642 481h-259q-31 0 -53 21.5t-22 51.5v88q0 30 22 51t53 21h259q31 0 52.5 -21t21.5 -51v-88q0 -30 -21.5 -51.5t-52.5 -21.5zM677 642q0 14 -10 23.5t-25 9.5h-259q-15 0 -25.5 -9.5
t-10.5 -23.5v-88q0 -14 10.5 -24t25.5 -10h259q15 0 25 10t10 24v88zM326 422h62q7 0 12.5 -5.5t5.5 -12.5v-61q0 -8 -5.5 -13.5t-12.5 -5.5h-62q-7 0 -12.5 5.5t-5.5 13.5v61q0 7 5.5 12.5t12.5 5.5zM326 286h62q7 0 12.5 -5.5t5.5 -12.5v-61q0 -8 -5.5 -13.5t-12.5 -5.5
h-62q-7 0 -12.5 5.5t-5.5 13.5v61q0 7 5.5 12.5t12.5 5.5zM326 150h62q7 0 12.5 -5.5t5.5 -12.5v-61q0 -8 -5.5 -13.5t-12.5 -5.5h-62q-7 0 -12.5 5.5t-5.5 13.5v61q0 7 5.5 12.5t12.5 5.5zM483 422h58q7 0 12.5 -5.5t5.5 -12.5v-61q0 -8 -5.5 -13.5t-12.5 -5.5h-58
q-7 0 -12.5 5.5t-5.5 13.5v61q0 7 5.5 12.5t12.5 5.5zM483 286h58q7 0 12.5 -5.5t5.5 -12.5v-61q0 -8 -5.5 -13.5t-12.5 -5.5h-58q-7 0 -12.5 5.5t-5.5 13.5v61q0 7 5.5 12.5t12.5 5.5zM483 150h58q7 0 12.5 -5.5t5.5 -12.5v-61q0 -8 -5.5 -13.5t-12.5 -5.5h-58
q-7 0 -12.5 5.5t-5.5 13.5v61q0 7 5.5 12.5t12.5 5.5z" />
    <glyph glyph-name="uni3425" unicode="&#x3425;" 
d="M113 509l436 277l361 -277h-797zM157 457h360v-475l-376 108zM568 457v-475l263 90v385h-263z" />
    <glyph glyph-name="uni4362" unicode="&#x4362;" 
d="M274 16l45 266l-193 187l267 39l119 241l119 -241l266 -39l-193 -187l18 -100l-43 -8l-21 123l147 142l-203 30l-90 183l-91 -183l-202 -30l146 -142l-34 -202l181 95l219 -115l-20 -38l-199 105z" />
    <glyph glyph-name="uni4555" unicode="&#x4555;" 
d="M954 -113q-10 -15 -26 -15h-800q-53 0 -90.5 37.5t-37.5 90.5v768q0 53 37.5 90.5t90.5 37.5h288q13 0 22.5 -9.5t9.5 -22.5t-9.5 -22.5t-22.5 -9.5h-288q-27 0 -45.5 -18.5t-18.5 -45.5v-768q0 -27 18.5 -45.5t45.5 -18.5h768q27 0 45.5 18.5t18.5 45.5v288
q0 13 9.5 22.5t22.5 9.5t22.5 -9.5t9.5 -22.5v-288q0 -37 -19 -67t-51 -46zM992 512q-13 0 -22.5 9.5t-9.5 22.5v224q0 9 -3 19q-3 -6 -7 -10l-511 -479q-9 -9 -22.5 -9t-23 9.5t-9.5 23t9 22.5l511 479q3 4 9 6q-9 3 -17 3h-224q-13 0 -22.5 9.5t-9.5 22.5t9.5 22.5
t22.5 9.5h224q53 0 90.5 -37.5t37.5 -90.5v-224q0 -13 -9.5 -22.5t-22.5 -9.5z" />
    <glyph glyph-name="uni4777" unicode="&#x4777;" horiz-adv-x="1000" 
d="M1000 319l-500 389l-500 -389v159l500 388l500 -388v-159zM875 334v-376h-250v250h-250v-250h-250v376l375 281z" />
    <glyph glyph-name="uni4859" unicode="&#x4859;" 
d="M97 225q-39 54 -40 93q1 39 40 92q38 51 99 97q152 115 326 115v-50q-62 0 -123.5 -18t-111 -47t-87.5 -61.5t-63 -65.5q-30 -41 -29 -62q-1 -22 29 -63q34 -45 89 -87q62 -46 138.5 -75t157.5 -29q61 -1 123 17t111 47t87.5 61.5t62.5 65.5q30 41 29 63q1 21 -29 62
q-34 46 -89 87q-62 47 -138 76t-157 29v50q69 0 137 -19.5t121.5 -51t95.5 -67.5t70 -74q39 -53 40 -92q-1 -40 -40 -93q-38 -51 -98 -97q-153 -115 -326 -115q-70 0 -137.5 19.5t-121.5 51.5t-96 68t-70 73zM254 584l-58 57q-7 8 -7 18.5t7 17.5q8 7 18.5 7t17.5 -7l58 -58
q7 -7 7 -17.5t-7 -17.5q-8 -8 -18 -8q-11 0 -18 8zM373 644l-31 76q-4 9 0.5 19t13.5 14q10 4 19.5 0t13.5 -14l31 -76q4 -10 0 -19.5t-14 -13.5q-4 -2 -9 -2q-17 0 -24 16zM754 584q-8 7 -8 17.5t8 17.5l57 58q8 7 18 7t18 -7q7 -7 7 -17.5t-7 -18.5l-58 -57q-7 -8 -18 -8
q-10 0 -17 8zM637 630q-10 4 -14 13.5t0 19.5l31 76q4 10 13.5 14t19.5 0t14 -14t0 -19l-31 -76q-6 -16 -23 -16q-5 0 -10 2zM503 668v95q0 10 7.5 17.5t18.5 7.5q10 0 17.5 -7.5t7.5 -17.5v-95q0 -11 -7.5 -18.5t-17.5 -7.5q-11 0 -18.5 7.5t-7.5 18.5zM328 313
q0 82 57.5 139.5t138.5 57.5q82 0 139.5 -57.5t57.5 -139.5v0q0 -81 -57.5 -138.5t-139.5 -57.5q-81 0 -138.5 57.5t-57.5 138.5zM358 313q0 -68 48.5 -117t117.5 -49t117.5 49t48.5 117q0 69 -48.5 118t-117.5 49t-117.5 -49t-48.5 -118zM421 342q-6 2 -8 8t0 12
q19 43 62 62q24 10 49 10q6 0 10.5 -4t4.5 -11q0 -6 -4.5 -10.5t-10.5 -4.5q-19 0 -36 -8q-33 -14 -47 -47v0q-4 -9 -14 -9q-3 0 -6 2zM403 276q-4 12 -5 25q-1 7 3 11.5t11 5.5q6 0 10.5 -4t5.5 -10q1 -10 4 -19q2 -6 -1 -11.5t-9 -7.5q-2 -1 -5 -1q-11 0 -14 11z" />
    <glyph glyph-name="uni4898" unicode="&#x4898;" 
d="M310 595l45 -26q87 29 186 27q33 0 67 -4q-74 39 -155 37q-68 -2 -143 -34zM820 400l-20 14q-77 -26 -136 -92q-6 -51 26 -97l-187 -187h-279v-101h465v142l81 82q61 -25 115 1q45 76 46 158q-14 10 -20 14q-22 -32 -66 -91q-60 12 -91 66q44 62 66 91zM456 413
q25 -7 43 -12q-24 -11 -43 -11q-6 0 -12.5 1.5t-12 3t-10 3t-6.5 2.5l-2 1zM456 366q-16 0 -36.5 6.5t-33.5 13.5l-12 6q-24 -6 -42 5t-20 29.5t8 36.5q19 -17 32 -17t23 10t29.5 15.5t51.5 -0.5v0q32 6 51.5 0.5t29 -15.5t23 -10t32.5 17q10 -18 8 -36.5t-20 -29.5t-42 -5
q-42 -26 -82 -26zM93 203q48 22 80 34v-300h-80v266zM223 251q42 11 85 18v-100h230l-72 -73h-243v155zM816 112v-175h-79v96zM658 532v-176v-12l-10 -8q-100 -72 -196 -73q-99 -1 -192 74l-9 7v12v213l-22 25q-10 106 41 166q46 54 140 67q33 8 79 0q82 -9 128 -50
q62 -55 56 -163l84 -52q15 -9 5 -30t-25 -16q-7 1 -79 16zM622 643q-3 64 -39 96q-43 38 -140 40q-94 -7 -134 -53q-28 -33 -30 -89q89 41 173 43q88 3 170 -37zM299 541l40 -23l22 -2q83 30 180 29q33 -1 69 -5v-172q-82 -56 -158 -57q-78 -1 -153 56v174z" />
    <glyph glyph-name="uni5364" unicode="&#x5364;" 
d="M956 503v137l-119 69l-69 118h-137l-119 69l-119 -69h-137l-69 -118l-118 -69v-137l-69 -119l69 -119v-137l118 -69l69 -118h137l119 -69l119 69h137l69 118l119 69v137l68 119zM928 281l-4 -7v-127l-111 -64l-4 -8l-59 -102h-128l-110 -64l-110 64h-128l-63 110l-8 4
l-102 59v128l-5 7l-59 103l64 110v127l110 64l4 8l59 102h128l7 5l103 59l110 -64h128l63 -110l8 -4l103 -60v-127l4 -7l59 -103zM512 261l-156 311h-124l18 -42h23l187 -373h104l186 373h24l18 42h-124z" />
    <glyph glyph-name="uni6958" unicode="&#x6958;" 
d="M396 -66q-67 0 -127.5 25.5t-107.5 72.5q-48 48 -73 109.5t-25 127.5q0 65 25 126.5t73 109.5q46 47 107 72t128 25q39 0 77 -9l259 261q13 13 32 13h1l172 -15q17 -2 28.5 -13.5t12.5 -27.5l14 -169l-31 -2l31 2v-1v-2q0 -19 -13 -32q-11 -11 -26 -13l-75 -10l-1 -62
q-1 -18 -13 -30.5t-29 -13.5l-63 -4l-3 -61q-1 -17 -13 -30l-37 -37q9 -38 9 -78q0 -66 -25 -127.5t-72 -108.5t-107.5 -72.5t-127.5 -25.5v0v0zM204 462q-79 -80 -79 -193q0 -114 79 -194t192 -80q112 0 192 80q79 80 79 193q0 37 -10 72l-6 24l57 58l6 110l102 6l3 99
l110 16l-11 139l-148 13l-279 -280l-24 7q-35 9 -71 9q-113 0 -192 -79zM946 639zM247 260q0 52 37 89t89 37t89 -37t37 -89t-37 -89t-89 -37t-89 37t-37 89zM283 260q0 -37 26.5 -63t63.5 -26t63 26t26 63t-26 63.5t-63 26.5t-63.5 -26.5t-26.5 -63.5zM543 479
q-5 5 -5 12.5t5 13.5l251 250q5 5 12.5 5t13.5 -5q5 -5 5 -13t-5 -13l-251 -250q-5 -6 -13 -6q-7 0 -13 6z" />
    <glyph glyph-name="uni8696" unicode="&#x8696;" 
d="M881 653h-740l-77 -201q0 -45 32.5 -77.5t78.5 -32.5q47 0 80 32t33 78q0 -45 32.5 -77.5t78.5 -32.5q47 0 80 32t33 78q0 -45 32.5 -77.5t78.5 -32.5q47 0 79.5 32t32.5 78q0 -45 33 -77.5t79 -32.5q47 0 80 32t33 78zM819 307v-256h-614v256h-26h-38v-269
q0 -17 15.5 -34t32.5 -17h644q17 0 33 17t16 34v269h-51h-12zM881 654zM192 704h640q16 0 27 11t11 27.5t-11 27.5t-27 11h-640q-16 0 -27 -11t-11 -27.5t11 -27.5t27 -11z" />
    <glyph glyph-name="uni8962" unicode="&#x8962;" 
d="M838 586l-120 -151q-27 25 -58 44q-26 16 -53 27q34 26 53.5 64.5t19.5 82.5q0 77 -54 131t-130.5 54t-130.5 -54t-54 -131q0 -44 19.5 -82.5t53.5 -64.5q-27 -11 -53 -27q-73 -45 -130 -127q-56 -79 -86.5 -179.5t-30.5 -204.5v-30h823v30q0 104 -30.5 204.5
t-86.5 179.5q-4 6 -9 13q85 105 129 156q-58 -6 -70 50zM496 777q51 0 87 -36.5t36 -87.5t-36 -87t-87 -36t-87.5 36t-36.5 87t36.5 87.5t87.5 36.5zM845 -1h-699q9 181 105 318q51 73 114 111.5t131 38.5q99 0 184 -80l-142 -181l-2 -5q-2 -3 -5 -12t-6 -17.5t-6.5 -19.5
t-5 -19t-1.5 -15t2 -10q9 -8 49 12.5t44 25.5q17 22 134 169q95 -137 104 -316zM867 547q-5 5 -8 12z" />
    <glyph glyph-name="uni8985" unicode="&#x8985;" 
d="M105 -61q-10 5 -17 12t-10.5 12t-4.5 6q-11 11 -9 26q12 84 29 178q23 126 37 161q2 6 7 11l504 495q26 25 62 25t61 -25l202 -198v-1h1q25 -25 25 -60q0 -36 -26 -62l-504 -494q-5 -5 -11 -7q-29 -10 -147 -40q-130 -33 -182 -41h-4q-7 0 -13 2v0zM126 -1q54 10 163 37
q94 24 135 37l499 490q8 7 8 18q0 10 -8 17v1l-201 198q-8 7 -19 7q-12 0 -19 -8l-500 -490q-12 -37 -31 -143q-15 -83 -27 -163v-1v0zM945 620zM827 451l-265 265q-5 5 -5 12.5t5 12.5q5 6 13 6t13 -6l265 -264q5 -6 5 -13.5t-5 -12.5q-6 -5 -13 -5q-8 0 -13 5zM259 3
l-149 150q-6 5 -6 12.5t6 12.5q5 6 12.5 6t12.5 -6l150 -149q5 -5 5 -12.5t-5 -13.5q-6 -5 -13 -5q-8 0 -13 5v0zM218 203q-5 5 -5 12.5t5 13.5l416 416q6 5 13.5 5t12.5 -5t5 -12.5t-5 -13.5l-416 -416q-6 -5 -13 -5q-8 0 -13 5zM473 256q-5 5 -5 12.5t5 13.5l267 267
q6 5 13.5 5t12.5 -5q5 -6 5 -13.5t-5 -12.5l-267 -267q-6 -5 -13 -5q-8 0 -13 5z" />
    <glyph glyph-name="uni8987" unicode="&#x8987;" 
d="M737 33h-544q-43 0 -73 30.5t-30 73.5v327q0 43 30 73.5t73 30.5h331q10 0 17 -7t7 -17t-7 -17t-17 -7h-331q-23 0 -39.5 -16.5t-16.5 -39.5v-327q0 -23 16.5 -39.5t39.5 -16.5h544q23 0 39.5 16.5t16.5 39.5v133q0 10 7 17t17 7t16.5 -7t6.5 -17v-133q0 -43 -30 -73.5
t-73 -30.5zM520 416h-406v-92h456zM731.5 229q-100.5 0 -171.5 71.5t-71 172t71 171.5t171.5 71t171.5 -71t71 -171.5t-71 -172t-171.5 -71.5zM731.5 668q-80.5 0 -138 -57.5t-57.5 -138t57.5 -138t138 -57.5t138 57.5t57.5 138t-57.5 138t-138 57.5zM732 469q-9 0 -14 6
l-69 75q-5 6 -4.5 13.5t6 13t13 5t13.5 -6.5l55 -60l54 60q6 6 13.5 6.5t13 -5t6 -13t-4.5 -13.5l-69 -75q-5 -6 -13 -6zM806 469h-149q-8 0 -13.5 5.5t-5.5 13.5t5.5 13.5t13.5 5.5h149q8 0 13.5 -5.5t5.5 -13.5t-5.5 -13.5t-13.5 -5.5zM813 402h-163q-7 0 -12.5 5.5
t-5.5 13t5.5 13t12.5 5.5h163q7 0 12.5 -5.5t5.5 -13t-5.5 -13t-12.5 -5.5zM731.5 343q-7.5 0 -13 5t-5.5 13v127q0 8 5.5 13.5t13 5.5t13 -5.5t5.5 -13.5v-127q0 -8 -5.5 -13t-13 -5z" />
  </font>
</defs>
</svg>
